<mxfile host="app.diagrams.net" modified="2024-01-01T00:00:00.000Z" agent="AWS Architecture Diagram Generator" version="22.1.11" etag="generated" type="device">
  <diagram name="kinesis_data_streaming_with_ecs_0007" id="generated-diagram">
    <mxGraphModel dx="1422" dy="794" grid="1" gridSize="10" guides="1" tooltips="1" connect="1" arrows="1" fold="1" page="1" pageScale="1" pageWidth="827" pageHeight="1169" math="0" shadow="0">
      <root>
        <mxCell id="0" />
        <mxCell id="1" parent="0" />
        <mxCell id="2" value="" style="image;html=1;image=data:image/png;base64,iVBORw0KGgoAAAANSUhEUgAAA7kAAAOSCAYAAACxzBc1AAAABmJLR0QA/wD/AP+gvaeTAAAgAElEQVR4nOzdd3gc5aG28We2qXfJkizLci+4gE01vQYwxHRT0oAkJ4fkhJNDzpdGSEICAVIIhEMKJZWEFFIIEHovBhvbuDfcbfWu1e5q23x/rLRFu5LbSrLG9++6ErQz7868K1F0e5phmqYpAAAAAABGv3tsIz0DAAAAAADShcgFAAAAAFgGkQsAAAAAsAwiFwAAAABgGUQuAAAAAMAyiFwAAAAAgGUQuQAAAAAAyyByAQAAAACWQeQCAAAAACyDyAUAAAAAWAaRCwAAAACwDCIXAAAAAGAZRC4AAAAAwDKIXAAAAACAZRC5AAAAAADLIHIBAAAAAJZB5AIAAAAALIPIBQAAAABYBpELAAAAALAMIhcAAAAAYBlELgAAAADAMohcAAAAAIBlELkAAAAAAMsgcgEAAAAAlkHkAgAAAAAsg8gFAAAAAFgGkQsAAAAAsAwiFwAAAABgGUQuAAAAAMAyiFwAAAAAgGUQuQAAAAAAyyByAQAAAACWQeQCAAAAACyDyAUAAAAAWAaRCwAAAACwDCIXAAAAAGAZRC4AAAAAwDKIXAAAAACAZRC5AAAAAADLIHIBAAAAAJZB5AIAAAAALIPIBQAAAABYBpELAAAAALAMIhcAAAAAYBlELgAAAADAMohcAAAAAIBlELkAAAAAAMsgcgEAAAAAlkHkAgAAAAAsg8gFAAAAAFgGkQsAAAAAsAwiFwAAAABgGUQuAAAAAMAyiFwAAAAAgGUQuQAAAAAAyyByAQAAAACWQeQCAAAAACyDyAUAAAAAWAaRCwAAAACwDCIXAAAAAGAZRC4AAAAAwDKIXAAAAACAZRC5AAAAAADLIHIBAAAAAJZB5AIAAAAALIPIBQAAAABYBpELAAAAALAMIhcAAAAAYBlELgAAAADAMohcAAAAAIBlELkAAAAAAMsgcgEAAAAAlkHkAgAAAAAsg8gFAAAAAFgGkQsAAAAAsAwiFwAAAABgGUQuAAAAAMAyiFwAAAAAgGUQuQAAAAAAyyByAQAAAACWQeQCAAAAACyDyAUAAAAAWAaRCwAAAACwDCIXAAAAAGAZRC4AAAAAwDKIXAAAAACAZRC5AAAAAADLIHIBAAAAAJZB5AIAAAAALIPIBQAAAABYBpELAAAAALAMIhcAAAAAYBlELgAAAADAMohcAAAAAIBlELkAAAAAAMsgcgEAAAAAlkHkAgAAAAAsg8gFAAAAAFgGkQsAAAAAsAwiFwAAAABgGUQuAAAAAMAyiFwAAAAAgGUQuQAAAAAAyyByAQAAAACWQeQCAAAAACyDyAUAAAAAWAaRCwAAAACwDCIXAAAAAGAZRC4AAAAAwDKIXAAAAACAZRC5AAAAAADLIHIBAAAAAJZB5AIAAAAALIPIBQAAAABYBpELAAAAALAMIhcAAAAAYBlELgAAAADAMohcAAAAAIBlELkAAAAAAMsgcgEAAAAAlkHkAgAAAAAsg8gFAAAAAFgGkQsAAAAAsAwiFwAAAABgGUQuAAAAAMAyiFwAAAAAgGUQuQAAAAAAyyByAQAAAACWQeQCAAAAACyDyAUAAAAAWAaRCwAAAACwDCIXAAAAAGAZRC4AAAAAwDKIXAAAAACAZRC5AAAAAADLIHIBAAAAAJZB5AIAAAAALIPIBQAAAABYBpELAAAAALAMIhcAAAAAYBlELgAAAADAMohcAAAAAIBlELkAAAAAAMsgcgEAAAAAlkHkAgAAAAAsg8gFAAAAAFgGkQsAAAAAsAwiFwAAAABgGUQuAAAAAMAyiFwAAAAAgGUQuQAAAAAAyyByAQAAAACWQeQCAAAAACyDyAUAAAAAWAaRCwAAAACwDCIXAAAAAGAZRC4AAAAAwDKIXAAAAACAZRC5AAAAAADLIHIBAAAAAJZB5AIAAAAALIPIBQAAAABYBpELAAAAALAMIhcAAAAAYBlELgAAAADAMohcAAAAAIBlELkAAAAAAMsgcgEAAAAAlkHkAgAAAAAsg8gFAAAAAFgGkQsAAAAAsAwiFwAAAABgGUQuAAAAAMAyiFwAAAAAgGUQuQAAAAAAyyByAQAAAACWQeQCAAAAACyDyAUAAAAAWAaRCwAAAACwDCIXAAAAAGAZRC4AAAAAwDKIXAAAAACAZRC5AAAAAADLIHIBAAAAAJZB5AIAAAAALIPIBQAAAABYBpELAAAAALAMIhcAAAAAYBlELgAAAADAMohcAAAAAIBlELkAAAAAAMsgcgEAAAAAlkHkAgAAAAAsg8gFAAAAAFgGkQsAAAAAsAwiFwAAAABgGUQuAAAAAMAyiFwAAAAAgGUQuQAAAAAAyyByAQAAAACWQeQCAAAAACzDMdITAAAAOBJ0dnWrvrFZzW0d6uhyKxAIKhQKjfS0MIzsdrucTocK8nJVWlSgivJS5efmjPS0AMsxTNM0R3oSAAAAVtXQ1KqNH+5Qa3uHXC6X8gsLlZ2XK6fTJZuNk+qOJOFwWIGAX54utzrb2+X3+1VcWKAZUyaovKx4pKcHWMU9RC4AAMAQ6PZ4tXrDFtU3tqiotEQVVeOUX1g40tPCYaSzvV31e/eorblFFWNKNHfmVOVkZ430tIDRjsgFAABIt921DVq5ZqMysrJUM2UKcYtBdba3a+eHH6rH69W8OTNUPbZ8pKcEjGZELgAAQDqt37xdm7buUGV1taonTpRhGCM9JYwCpmlq9/btqtu9W9MnT9BR0yaO9JSA0eoebjwFAACQJh+s26yde+o0afp0lVVUjPR0MIoYhqHxkyYpKztbW7ZskT8Q0DGzpo30tIBRicgFAABIgw937NaO3bWaetQsFZWWjPR0MEqVVVTI4XBqy/p1ys3J0pQJ1SM9JWDU4ZZ+AAAAh6ihqUVrN25V9aSJBC4OWVFpiaonTdTajVvV0NQy0tMBRh0iFwAA4BCEQiF9sG6zSsrKVDmOo25Ij8px1SopK9MH6zbzPGXgAHG6MgAAwCHYvG2XegJBzZg8eZ9jTdPU26+/puXL3lNTY4Py8vM1acpUnXbm2aqoHDsMs8VoMn7KZK1etkybt+3SzKnciArYXxzJBQAAOEheX4+2bN+lceNr5HS5Bh1rmqa++82v6mcP3KvcvDwdd+IClVeO1ftL39XK5cuGacYYTZxOl6qqa7Rl+y55fT0jPR1g1OBILgAAwEHasbtWNptD5VX7Pgq7dMnbWvbeu/rtn/6mktKyAcf9+K475A/06Ovf+l46p4pRqrxqrGp3R25qxtFcYP9wJBcAAOAg7a5rUGl5uQzbvn+l2r5tq/LzCwYNXKA/w2ZTaXm5dtc1jvRUgFGDI7kAAAAHodvjVXe3VzVTi/dr/Lhx49Xa0qwXnn1GH7nwopRjHvv1I3rxuWckSW0tLZo4eYpuuvmW6Pp1a1bptZdfVGNDgyZMnKRLrrhKxSWl0fW33/oVffamm7XsvSVavXK5Fpx6us4673y9987bWvbuO2pualRBUZHO+cgFmnfs8Qn7XvbeEr39+qvyer2ae8x82R0OmWZYF158SXTMe++8pXfefF1dXZ2aNedoLbrsyn2epo1DV1hSrLo9u9Xt8SonO2ukpwMc9jiSCwAAcBDaO7pkGIZycvP3a/zJp5+hU888S/fefYc+98nr9NfHH1NnR3vCmONOOElZ2Vmy2+1adPlinXL6WdF1/37qSd32/25RdnaO5h4zT8uXvaf/vP7jqqvdGx2zbs0afenzn9Xrr7ykceNrVFZeoeamRv3l8d/L4XRo/nEnyG6z6Rtf/m+9985b0fc98ec/6o5vfUO5efmaOmOmXnv5Rd33g++rbm9s27/71cP62f33asLEyTr2+JP06ksv6Jtf+R+Fw+GD/RZiP+Xm5cswDLV3ukd6KsCowJFcAACAg+Dx+uTKyJDNvn/HDGw2m755+/e1cd1a/fXxx/Sbh3+hx37zqC68eJE+eeNnlZ2TqxmzZuvU08+WP9CjU884M/rezo52PfLgT/XVb92uE08+VZJ0yeVX6Yufu1G/ffSX+tpt342OLSos0r0P/jJh3/f97OGE174en1556XmdePKpamtr1e8efUjf+PYdOumUyLYvv+oaLTzrFBmGIUmqr6vVnx/7rX7xm8dUPX6CJOmMs8/VdZdfrE0b1mnmrDkH9L3DgbHZbXJlZMjj9Y70VIBRgcgFAAA4CIFgUA77gf8qNWPWbN12x91qbWnWc0//S3/47a/U1tY66I2mNm3cINMwo4ErSQ6nU+cv/Kj+8dfHE8Ze96kbk94fCga1bu0arV+zSp1dnXp/yRJNm3mUJGnzhg2y223RwJUiQT73mHmx/a9fr1AopEd+/n+JGzYMNTc2SbMO6FuAg+CwOxQIBEd6GsCoQOQCAAAcBNM0JZtx0O8vLinVdZ+6Uf5AQE/+7c8Kh8OyDXADq7bWVmVkZKbYRom8nn5H9/pNqbOzQ1+/5b+Vk5OtU884WxMmTdHO7dsUDoV717crM2Pw6zyN3s952VXXJMzxiquv04RJ+34+MNLAZkT+ngOwT0QuAADACCotLZXTmZEYuP1aZuzYKrW3tam+rlYVlbHHFW3b+qFqJk4adPtvv/GaOjva9eAjv4kue/Xl5/X6yy9Jkiorq9TW1qqG+jqVV1TGvTNWy+NrJvQuMTT3mPkH9PkAYLhx4ykAAIBhsOy9JXrqH39TfV2twuGwTNPU+rWr9ec//F5nnnNudFx+QYE2rl+rgN8fXTZz9hzVTJike+++I3qzqg3r1uhff39CV1x93aD7NQybWpqbtGn9OklSa3OzXn/5JZWWjZEkHTVnrmpqJureu+9QR3ubJGnLpo1a/cGK6DYmTJqsY48/QQ/e96OEG13Ffw0AhwuO5AIAAAwDT3e3nn3qST14349kdziiN3W68OJF+uxNX4yOu2jRZXr15Rd07eUXq6CwSD//1e/lcrl063fv1N23f0vXXHqR8gsK5PV69enPfSHhWtpUzjrnPL3w76f13zd9RgWFRbIZho6aPVcZGRmSItfffuO7d+iO227VtZddrNy8fBUWFqq8oiJhO/9767d13w/u0qc/tlhV48bL5/PK6XLqkd//ecDTrAFgJBgmJ/cDAAAcsHWbtmpvU5tmzz+w03c7OzvUWF8vh8OhisqxysxKvh7W39OjnTu2q6SsTMXFJQnrGurr1d3dpfHjJ8jhdCasW792tarGVaugsChhuWma2r1rp4LBgKqraxQIBdVQW6uJk6ckjKnds1sOp0vlFRX64n/coLPPu0CXXXV1wrbcXV2q3bNLuXn5qqwaF411DK21K1aoqqxIs6ZzDTSwD/dwJBcAAGAY5ecXKD+/YNAxrowMTZ0+I+W6yBHWipTrjpo9N+VywzCi19VKklOuhMDtG1NVPV6SFPD7Vbt3r6prapK2lZuXp2kzuZ0ygMMX55YAAAAc4erralW3d4+kyBHdP/zmUZWWlGr+cSeM8MwA4MBxJBcAAOAIt3bVB7rvR3crLzdP/p4ejams1G133sW1tgBGJSIXAADgCHfuBQu14PQztHf3LhUUFCXddAoARhMiFwAAAMrJztG06TNHehoAcMg4BwUAAAAAYBlELgAAAADAMohcAAAAAIBlELkAAAAAAMsgcgEAAAAAlkHkAgAAAAAsg8gFAAAAAFgGkQsAAAAAsAwiFwAAAABgGUQuAAAAAMAyiFwAAAAAgGUQuQAAAAAAyyByAQAAAACWQeQCAAAAACyDyAUAAAAAWAaRCwAAAACwDCIXAAAAAGAZRC4AAAAAwDKIXAAAAACAZRC5AAAAAADLIHIBAAAAAJZB5AIAAAAALIPIBQAAAABYBpELAAAAALAMIhcAAAAAYBlELgAAAADAMohcAAAAAIBlELkAAAAAAMsgcgEAAAAAlkHkAgAAAAAsg8gFAAAAAFgGkQsAAAAAsAwiFwAAAABgGUQuAAAAAMAyiFwAAAAAgGUQuQAAAAAAyyByAQAAAACWQeQCAAAAACzDMdITAAAAQKLOrpA6O4J6e0lX3FIjcVC/l/ELjQHX91thpFg26O72cw4D7rtvSMqtpRwz+HYSt5L0jsE+X9Li1GOMfY6Jfd4T5zmVn2soL2c/5g5gyBC5AAAAh4n6er+efaFdL7/a0bskMUiNfQVqb/Qlr0oeE3054BglhaaRYlmqGDX2Y0xS6A4yZsB9x1ZEv054R6pATfiY+xpjpJha6jEypOfe8MuQdMaJLp1zilPlpZw0CYwEIhcAAGCE7dnr1wsvtmnJu255feHIQkOSTEUjypRMw4wlrJl6jAxT0VGDjOl7bZp9Edd/TMLKuLcmLus/JrLITAzdFGP6lsWmOPCYAffd//OYkhnt1oQXsQ+V8DFNGYOOiXyRuNvUY+L/8vp7fi39IKjjj3bozAVOVZUTu8BwInIBAABG0OtvdOqxxxvl8YR7Q2rwiCV0R0foenvCemNpQMtWB3XVRRk65Vh+7QaGC3+sBAAAMAJCIVOP/qZeD/+qXh5P5OitaUqRROplJn0R6bb9GJMwapAx0ZcDjklYGffWxGVJrxUJ3X2N6Vtm7seYAfcdWxH9OuEdZtLAfh9zX2PMFFNLPSbxL6a8PlO//7tPjz3pUyicPG0A6UfkAgAADLNgwNTv/tCoV17p6A3B/rFJ6A40ZsB9x1ZEvz5cQtc0pTffC+rPT/coGEwxbwBpReQCAAAMs2eebdNLL7VHXqQIS0J38DED7ju2Ivr14RK6kvT6uwG9+FYwec4A0orIBQAAGEbbtnn1zL9bEmOK0E1YZuXQfeFNv3bsCSXPGUDaELkAAADDxDSlH/xoj7q7Q0oKLkI3YZlVQ9fjNfXAb30ppwwgPYhcAACAYfL0My3q7Iw/ikfoHomh6+429cKb/uT5AkgLIhcAAGCYvPpa5DrcpDAidJPGWD1033qfa3OBoULkAgAADINNmzxqaQlowDAidJPGWDl029rD2rKDa3OBoUDkAgAADIN16z0KBKJlGPl/QnefY6wauv6gqY1bOZoLDAUiFwAAYBisW+dOGUqE7pEbupu2cSQXGApELgAAwBBrbPSrttavgWKK0D0yQ7euMazm1nDyHAEcEiIXAABgiLndIXV09J2aSugSupEvutym3J4U8wNwSIhcAACA4TBYxBK6vYuOvNAFkH5ELgAAwHAhdJW4kNAldoH0I3IBAACGgZkilAjdFK91pIUugHQjcgEAAIYJoUvoDrQdAOlD5AIAAAwjQpfQTdoAgLQicgEAAIacmRxFvYsHGkPo9i0idAEcGMdITwAAAODIYEqmIRl9r0wZMiKdY6Qe07fSNCVjgDF2m6GKMU6VFjviNxQ3PrYs6XXclxs+9CkQNJUwIVOSEZ1p3KrkMX2vY3PtPyZhZdxbE5f1HxNZZMrYx5i+ZbEpmrLbDZWV2FN+9ti3p992+n3fQqbU2h5SOJz6Z5P4MU0Zg45J9fMEkG5ELgAAwLBJf+hecn6R/uNjZcrIOLQT9K79r+1qbA4OGLGjMXRLCmz6zffHHPD3Il6P39Sv/+nWv171aqCfDaELHF44XRkAAGBYpffU5XNPyz/kwO0/vaQJjeZTlw9RhsvQWSdkDsOpywDShcgFAAAYDoNE7KGErs02BIcDCd0ENsPo9+NIX+gCSD9OVwYAABgWKU51Tdepyyns3NOj51/vjFxLmiD1Nbld7pDiTkoe9LTk0XLqssdn6p8vdaf8vP0X2u3SgqMzVFpkTzEmFqixH0e6Tl0GkG5ELgAAwBBLPAI4FKGbbFylS4ZM/e2ZNgVDkRlExqeK3LjQNKwTuu7ukH7+p45+HzX5m+ZwGLr8vBwV5acK3ISZDUHoAkg3TlcGAAAYBoOe6pqWU5cT2e2Grl9cpsUfLZLDbsSNT3HqcL9lR9Ljhex26YrzcvSJRbmy76tx44/oxq845FOXAaQTkQsAADDUkpomfaEbb3etX+9/EDs91+k0dP3VZbrqo0Xqu3SX0I29thnSFefl6uOLcuV0xA6rLl/fo70NwRTbidtKukIXQNoRuQAAAMNhGELX3R3S936yJzF0HYY+c90YXXNJsWy9v/kRupLNMHXlBbm6/vK8pMC9++EOdXkGiFBCFzjsEbkAAADDwkzRPekI3USd7pBu//EeLfvAHV1mM6RPXztG1ywq5tRlRU7lvvL8XF1/aZ7ib069Yn2Pvv/LdnV1h5Pfmzyp6NeHFroA0o3IBQAAGDZDHLq9y9yekO68f6+WrowLXZt0/dVlWrzoyL5G12GTrjg/R5+4JC96ZFuSlq3t0T2PtKvbE04dyEk7i5swoQscVohcAACAYTV0oWsq1mcdnSHd83+1CUd0nQ5D118VuRnVkXjqss0mXf6RHH1iUeIpyu+v7dG9v25XR1fcEdz+m055ZDhu4MGGLrELpB2RCwAAMBwGCNRDDt1Uu+pd3Noe1J3379X7qxJvRnXjNWW6ZlFx9Gk6R0LoGoZ01QV5uv7ygoTAXbG+Rz98tE1tHaGk7exz37EV0a8POHQBpB2RCwAAMCwGjthDC90U+1HiEd3bf7QnIXTt9tjNqOxHwKnLdruhq87P1Q2X58se99vvinU9uuPnbWrvO4K7j9OUhyJ0AaQfkQsAADBsRiZ03Z7IXZfjT102DOnGq8t0tcWfo+vovcnUpy7Ljx65lqTla32666FWdXtC/aZI6AKjHZELAAAwrNIcugPGUmLodnaFdNcDtQk3o3I4DF2/OHKNrhWP6Npt0hXn5+oTl+bLkXANrk8/fLRNne7EI7iJoTvwtgld4PBG5AIAAAy7NIZuik33f9HXY23tQd31QG3SNbo3XBMJXStdo2sY0pUX5OuTl+UnXIO7cn2Pfvhwq9o6wynfN/gB8iEIXQBpR+QCAAAMg+QeGorQNVO/J27/7R1BfedHexKP6NoN/cfHxujyC4v6zXf0hu5px2Xp01cVRE/FlqT31/j0vQdbItfgDvIc3eENXWIXSDciFwAAYFiYQxK6O3b7tHGLVxu3eLVzd8/A71Gsx7o9IX3vJ4l3Xe72hFXb4E/c8ygO3RVrfdq0zR97vc6n7/+yRd3e+McEDRy6DS0h7a4LanddUA3NoZRjBtp30ucZNHQBpJtjpCcAAABw5DBlmkbCDZAi0WNIRvJrU32LBx7z/fv3SJKMvpUpxkRfy5BpRk7ldXeH9P379+prXxyro6Zl6Z4H67TkfXfv+Lg9m5JhxF7HViUuMw0zNocBxsgwFR01yJjEfacak7Ay7q2xZW5PWHf+rFm3fr5Und1h/fCRVrm7I4FrxP8A+m2nb9lPftMumy0y13B4gBg2oj+dhH33m5T6fpixH0f/nw2AdCJyAQAAhlX6Q7d3q5F8jOvBfYVuW0dQdz9Qq8pylzZ86I0fIlkgdOubg7rtviaFwlJXd+wIrmma+wxdry8cXRZdkyKGDzl0AaQdkQsAADAc+sXn4RS6bR3ByBuMhCEJk96f0HXYDblchjIzbKooc2pMiVMF+TYVFTjkcBhy2A0VFtglU2rtCMkMm+rxm+pwh9TWHlZja1CNzUH5A6Z6AqZCvWcJH0rotnf2bqRffO5P6PYti33Ugcek2ne/SSll6AJIOyIXAABguBymoZtyzH6Ert1mqLzMoakTM3XU1CxNrslQ9ViXSoodsh3kQcpQyFRTa0i76/zautOvdVt6tG2XX02twbhrhA8sdOMmn7CvwyN0AaQbkQsAADDkzMQvR3noFhfadeL8XJ1xUp5mTslUfp79oL4rqdjthirKHKooc+j4udmSpLaOkNZv6dEbS7v1/hpP7/NtrRG6ANKPyAUAABgO8dEzSkPX6bTpsguKdNkFRRpT5jzoo7UHqqjArlOOy9aC+dna2xDQ357t0HNvuKOnM4/m0AWQfkQuAADAcBnFoVtW4tQ3bh6ro4/KTuo2SQqFTYWCUm2jXzt2+7W3PqCGpoCa24Lqcofl9YUV7r0W15BUUhT5NTQn26bcHLvGlDpUXurUuAqnJo53qazYIYfdkC3ugZc2m1Rd6dTN15fqxHnZuveRZrV3hhO/n6MtdAGkHZELAAAwnEZh6Bbk2fXd/1elGVOyEj5KIGBqd51fyz7o1vI1Hm3e6lNnd9/h1bgPYih21+Xe153uUNKY+FGFBXbNnJKpY+dk6dg52aocE4leKRK7C+Zl62s3lem79zfK4zMTv5+jKnQBpBuRCwAAMAwSG3N0he75ZxZo+uRY4PoDpt5f1a0nn2/TynUeBYP9jkoa/T6YqQN+vFB7R0hLVnRryYpuZWbYdNycbF16fr7mTM+UvTd2jzkqS6ccl60X33L3246S4vOwDV0AaUfkAgAADDVTkmnKNIzDLnSLCpwqLXZoy3ZfdCL9Q/foWbFTlP1+Uz/9Vb1eeKNDgUBshkP5HF1fT1hvvR+56dSi8wp041VFcjgM2W3SvKOyeiM3cTuGIS1emC+3J6z3VnnV3BY6PEMXQNoRuQAAAMPlMAldQ9KkCZm6/KISnXJ8nhqbA/rSt3bI4w1HJxI/NXvcHabCpqm2jqCCgb7DkEbcRxm60JVM9fil1vZgwgHQgnx7yufoulyGrl1UoOxMm7q6w3p/rVdPvdyl9Vt6ZBK6gKURuQAAAMNpBEM3w2XTvDk5WryoVPPm5EZv6lRY4NDUiVlatb479p6kI7oRmRk2ffuWcXrhtQ799ZkW1TUEFAjGf5T0h67TYahmnEtXXlioM07KkdORHIn9Q/f4uVnKyYp8wPxcm84+KUdnnZijDVt79I8XurRslVeeHjPVBuIWEbrAaETkAgAADLdhDl27XTp6Vq4+dfUYzT0qJ+GOxX3OPjVfq9Z1p7xGtz+X09DF5xXqnNPytXqDR+8ud2vtJp8amgLq6g6lJXQL8uwqL3VozowsnTQvR3NmZKaM2/gLW+NDd/J4l/wBUy5n7D2GIR01JUMzJ2do83a/Hn+qQ0tX+xQMmf03ELdNQhcYbYhcAACAkTBMoTu20vPvkqcAACAASURBVKVPXV2us04tUIYruW5b24J6d3mXXnitPfV2NXCIZWXadOK8XJ04L1deX1iNzUHtrfdrx+4e7anzq7ktJHd3SF5vWN2+cPSIb58Ml6GsTLtys23KybGrrNiu8VUZGl/lUlW5U2UlDmW49icE4z5177fxL890aPkan844MVunHJetsuLYr72GIU2f5NI3v1Cqdz/w6nf/7NCOPb0XGA936Kb4QwQAh4bIBQAckHA4rMbmNjU0tai1o0vdHq+CwWDkGjccMZxOh7IyM1WYn6sxpcWqKCuR08mvFYMaIHqGKnRthnTO6YX63KcqNabUmTSdxuaAnni6Wa+82aHWtqDC5iDbjdP3PFxXv/jMyrSpZpxLNeNcOvm4XElSMGQqGDQVDEa+DocTt2W3GbLbDTkdhhwORe+aPBiPNyyXy4g+Tij2vUoMXa8vrLWbvVq3xac//qtDJ8/P1pUL8zWuIva9cDgMnXpctmZPy9BjT3bomVfdCoU1rKHLvzmB9OO/RgCA/RIKhbR52y5t21Urv9+v3Lw85ebnq3BMuRwOJ2fdHWECwaD8Xq863F3as2ajDMNQ9dhyzZw6UZkZrpGe3uFrmEI3M9Omm66v1KULS5Pur1TX4Nffnm7WMy+1yesLS1LstOEUwdxfU0tQX7pthy46p1Bnn1qgshJnUvD2cdh7YzRj0O/KPvX4TdU2BPTSW1168c0uPXD7OJWX9fs1NkXoGkYkTts6Qnrm1S698JZbZy3I0eKFBaoe61Tf/bQK8+36wseLNXd6pn76u1Z1usPDFroA0o/IBQDs0566Bq3ZuFXBUEjlY6s0prJSroxD/K0VlhEKBdVc36i6Pbu1p65B0ydP0JQJ42RLdeEnhjx0S4sd+urN1Trx2PyEXXS5Q/rHMy3667+a1OkORTYa3cX+PEc3trihKaBf/alJv3uiWdMmZWnuUdmaMzNb4ypdKsiPnH68P0dlUwkGTbk9YbV1hLS71q81G31as8mrrTt7eo82GwMf/RwgdPs+WCBg6oU33HrrfY8WnpmrxQsLVFRglxQZd/oJ2SorsesHD7Vob0OQ0AVGKSIXADCgUCikZavWq76xRWUVFRo3caKczuTTHnFks9sdKq8aq7KKCtXt2a0NH+7Q7roGnXzsXGVl8ochKQ1R6JaWOPXNL9do/tzchE2v2dCtn/2qTus3eQaM2EFDd4DpB4Om1m/2aP1mr/70ZIuyMm0qLXaoqMCh0hKHykudKixwKDvLpoJ8e++No2LbCwRNdXSG5PaE1N4RUlNrUE0tQXV0htTYGpS/32OKIl+mStzkOzMPFLqS5PGE9cSznXp/jVefubpYJ8zNin4/Z07O0K2fL9UdP2tW7XCELoC0I3IBACl5fT16d/lqdXt7NPPoo5VXUDDSU8Jhzma3qaqmRqXl5dq8dq1ee+d9nXTsHBUV5O/7zUeA/Q2jgw3djAxDX/rcuITADYVN/eu5Fj3yWL3c7lDvW1Nfx9u71dShm/LzxE8/sh2vL6zdtX7trvXHvT82ycj4+GBNHhM5wNx/TL+IjZ9T/LXEBxC6MqUdewK64/8adfVFBbr64oLo3Zun1Lh0yw3F+vZPm9XtGeJTlwGkHecRAQCS+Hp69PqS5eoJmZo1fz6BiwOSkZmpo+bNU2ZOrt58b6Va2ztGekqHjaQbtKU6kmeaiVlppgq6yIv4VddePkanLYj9sxoImHrot3V64KFadblD8Q/aSdpOYjOaKffVb5Ippt9vu2bSF73jBwrU+M3sY0x/A2wned/JY3w9pn7/j3b99Let8sU9N3fujEx9ZnFhrElT/Kz29+eZOEWO3gJDjcgFACQIhUJasnyNZLdr1jHHKCMzc6SnhFHIbrdr2uzZyi8s0pLla+Xx+kZ6SoeNoQjdSTVZ+vhV5dEgC5vSY39t0ON/b1QwFFZytx5M6CZNMsX0R2fohk3pude79LM/tMaemSvpwtNzNXd63L8DCV1gVCByAQAJlq/eILfHp+mzZsvu4KoWHDzDMDR55kw5XC69s3y1QqHQSE/psJHu0P3UNRVyxT0D97W32vW7PzckjElX6DqdhvJy7AkTGc7Qzcrs9/iglG8/8NCVIqH7r5e6oottNumTlxUo4R5qhC5w2CNyAQBRtQ1N2lvfpGmzjlJGVtZITwcWYLfbNX32bHl9Pdq0dedIT+ewkq7Qra7K0PHz86KLW1oD+uVv9ioUdwQ3+oaDDd04xYUOffmmsSorccbekzT9oQndony7bvp4qYoK+/8BnJmW0DVN6fGnOrS7LhBdPG2iS9Mm9HssVlpDl9gF0o0/ogcASJJC4bBWb/hQZeXlyisoHHxsMKivf/nm6Guny6Xq8TU69/yFmjJt+lBPdUi0t7Xp+X8/pYWLLlVeHjdKSidXRoaqxk/Qlu3bNL6qUrk5R+IfoPQW1EHevGiwm1EdPy9fudEjq9KzL7eqvtEft9/UN5oyFb0t04BjIq8SI8wwpDNPztfcmdl68Y12PfVim2rrAwon3Z+p33ajO4zbsykZcTeISjXGZkhlpQ5ddFaBPnJ6vspKHMn3bjIlGdHbZqXcTt+Yfd2Mqr0zpKde7tLnP14sScpwGTpudqY2bu1J/Nmk62ZUANKOyAUASJK27tgjfyCg6kkT9zk2HA5r9QcrdfGlV2jS5CnyeLq1dMk7uvnvN+qWr9+mcz9ywTDMOL1Wf7BCv37o55o0eaqOP2nBSE/Hcsqrxqqxvk7rN2/TCfNmjfR0Rs4QhO6MqdnRYT09Yb3+dnuKo6qHFrqpFBc5dPUlpVq8qFQfbvdp+Wq31vU+z7bbE5LPF448AugAQtfpNJSZYVNWlk1TajI0e0aW5s3K1rRJmfu+KXEaQ/f9NV51dYeVlxM56XHWtIzet5ppD10A6UfkAgBkmqa27tyjMRVj5XTt/3NNTzjpZJ2w4GRJ0hVXX6e7v/ct/fz+e3Xa6WeOuhtWnXrGWXrod4+renzNSE/FkgzDUNX4Gm3duEFeX8+R/fzcNIduxZjY97KtI6jmFn+Ktw9N6EqR/UydlKmpkyL/zAeDphqbA2pqCaq1Pai29qDaOkIKBE21dQQVDEbSzu4wVFTgkN1uqLTYoeICuwoLHCotdmhMiVMu10Ec50xT6LZ3hNTeGYpGbt81yEMRugDSj8gFAKi5tV0+X4/GVFYe9DYMw9Diaz+u119+STt2bNP0GUelcYZDz2azaXzNhJGehqUVl5Zop92hPXWNmjqxeqSnM7LSGLqZGbExgYAZOXqq5OfoHlLoxh1y7HKH9PbSTp12Ur5ysmOnSfdxOAyNrXBpbIUrad2h8vWEtfQDj+bPzlZuTt+tZfqua02M2EMJ3b5Tr1NJe+gCSDsiFwCgxuZWZWdnKzP70K6VHFMRiWSvx6OG+jr94oGf6L//9+t66h9PaOuHm3XtJ2+Ixu8rLz2vFcuWyuf1aOasOVp02ZVyuhJ/KX7z1Ve07L131NHRrgkTJ+uSy69ScWmpQqGQnnnyH1qzeqUcdocWnHq6Tj/rnOj71q1ZpZeff1ZNjY2qGDtWs+ceozPOPnfQdQ31dfrxXd/Tt+64R7l5eWqor9OvH/65rv3kDXr5uWe1c8c2VVWP15XXfEzFxSXRfYXDYT371JNatXK5cnNzdeLJp+mDFct05rkfGXWhP9QMm00FxUVqaGo5MiM3jWEUH7rNLbGbJOXl2pWfZ1dnV1BpDd043Z6QfvDgXv3uL0065cQ8nXlygWZMyZK93x2P0yUclj7c6dNbS9168z239jYE9Lv7JsRFbvw80xO6mZmGMuKOJPcdfU7YU7p+ngDSjsgFAKi1o0s5+Yd+s6W9u3ZJkmomTlJnR7uWvPWmanfvUeW4KtVMmKSSklJJ0g++9x2tX7dGCxddKr/fryce/4PeeOVl3fuzh2S3R44M/fTH9+i9d97WRYsu1fgJE7Vh7Rp5vN0qDBfr67d8UZKhM885T253l37x059o147t+vgNn9Gy95boe7d9XRdevEinnH6m6uvr1NLUJEmDrvP5vFr9wUoFgoHo69deelEfLH9fF370Us079gQ998y/9O7bb+oXv/6DXL1BfvutX9GObdt04aJLFfT79csH71ftnt067gSu600lNz9ftTt3jvQ0Rs4QhO72XT6dFrlqQIUFDs2clqM9tT19A9MUuolCIVO19X799ckWPfFUi/Jy7ZoxJUvTp2RrUk2mJlZnqLDQIadDstkMOR2RDdntiXMJhkzJjPw1FIrEZEdXSLtr/dqy3act23u08UOv2rtCvQc9B5jQIBF7MKE7sdqpsuLYr8m7agNJPwdCFzh8EbkAAHm8PhXnD35H5X1pamzQLx68X+ddcJGKiorV2dEuSbrkysVauOjS6LjlS9/TO2+/oV/94S8q7o3e8y5YqM9+4ho9/++ntfCjl2jd6lV66fln9ehjf1bZmPKE/bz0wnOqr6vTr/7wFzmckUeYTJw8RXd86xu67lM3aslbb+joefN10823JM1xsHUD+cmDD6myapwkadacufrif9ygdWtWad6xx+vdt9/SqpUrEj7Losuv1OJFFx7Ad+7IkpGdLX8goGAwKMcR9hzmWGOlN3RXru7StVeUy+mMrL/kwlK9+U67fP5wdM9DEbp9+WiGpc6ukJaudGvpSnfk3YaU4bKpqMCunBy7igocMgxDebm23iO+hsJhU13dIYXDUqc7JLcnrLaOyA2rpL6PG7fz/oE68DdYhxK6Druhi87Kiz4bNxyWlq/1Rr/nhC5w+Duy/usCAEjpYIPjW1/7skrLxigQCKirs0MXfvQSffqm/0oYs+C00xNef7DifR09b340CiWpvKJSx5+4QOvXrtbCj16iZUvf1azZc5MCV5LWr1mlxoZ6fe9bX48u8/l86vH51NXZoblHz9c9d3xbd333Np1y2pk6ccEp0ZtgDbZuIJnZsTvXTp0+Q3l5+dGjv2tWrUz6LPn7ePzSkc7Ze6TeHzjyIlcamtBdvc6tPbU9mlgT+Xt5zlG5Ovv0Iv37xZaEiD2k0B3w8/TmY0J7Rt7T4w+rviksNQWiKxP33y+gjcQvBn+80IATOuTQnT87SyceE/vnvqU9qOVrvLHhhC5w2Dvy/usCAEhiHuQvW1defZ1OOPkUZWfnaFz1eGVm7fua3tbWFmVkJIdlYUmJOtpaJUnNDfXKjovLeIbNppLSMl1x9XUJyz/2qRuVl1+gM889T1XV1Xr26Sf18/vv1U9/fI8WX/cJLb7uE4Ou21/O3qPHktTR0a7MzCPxma8HzzT6AuYIu+GOmfhlOkO3pyekvz7ZoK/cXCNJstmkL3ymSh9u82rzVk96QjfV54n24cChm3hdr5HG5+j2n040YQ8pdCvG2PWlG0qip1dL0rOvudXVHU7cdjpDF0Da9b9iHwCA/TZ33rGae8x8TZk2fb8CV5KqqsZpy6aNCofDCct3bN2qmgmTJEmlY8q1ffu2lCE0fvwE+TweTZ4yVXOPmZ/wP1vv+YVTp8/QzV/+qv74j6d14+e+oF/98meqq927z3UHauzYKm3euCHpswApxf39bKZYlvK1UvyBQIoxTz/frFVr3dHX+XkOfedrE1VdldGvUc0UbzeTxvS9HijBDCPxPWbKN6TYbtL0+40xk77oHR97nfKP48y4OQywHZkJM00aU1Jk1zf/q1xlJbFjQLtrA/rrv9tTbCfpg/Ru/iB+ngDSjsgFAAyrsz9ygVqam/Twzx9QKBiUaZp65sl/aNvWzdFrd0878yzV1+7Vn//4++j7Gurr5O/p0XkXXChnhks/uef78nkj18mFw2E11NdLknZs26qW5sjpxIZhKL+gQJLkcrkGXXewn6U57rOEw2G9/OJzB7UtHCGGKHTDIVM/emBnwp2Wq6sydO+dU3X07Nx+YXhooVtU6NA5pxfKbpeGO3RtNumEY3JUkJf86KKDDV1D0uQal+7+aqVmTI49c7irO6wfP9Isr88cYDtJH4TQBQ4TnK4MABhWFZVj9Y3v3Kl777lTz/zz73I4XcrLy9Xtd/1YJaVlkqTJU6fr5i9/Vb/4v/v0j7/8SU6nUx63W3fd94CmzzhK373nx/rxnd/T4kUXaOy4arU0NWnBqafplq99U6+99IKe+MvjysvNk2G3yd3ZqU//5xdUUlqmp/7+xIDr3O6ug/osX73tdt179516+p9/l8uVoTlHH53ubxmsJu401nSeurx9p1c//OlO3fb/Jio3NxKBFWNcuuu2yXr0sVr967lmBYKxYDvQU5f7ZLhs+t/Pj9NxR+fpn/9u1uatPsXd4mpITl22GdKE6gxdfG6hzj+zQFmZAxynMSXT2P9Tlx12Q2eelKP/uK5EJUWxX4t7/KZ++ccWrdvi6/etTnHqdLpOXQaQNobJHyUBwBHv6ZfeVNXESSqvrNyv8aZpas2qlZo4eYry8lI/eqjH59Omjes1a/Zc2VPcYCgUCmnP7p1yOlyqrKpK+cue3+/X7l07ZLfZNXZcddIR1+amRrU0NalsTLmKS2M3f/J4PWqorVUgGNC4cdXKzsnd57r+8x1o/hvWrVHF2CoVFRVHlwUDAe3atUNjxlTIbnfosgvP1oOP/laTp0zbr+/nkcTd1aV1K1boI2ecpJxDfC7zSFu3aav2NrVp9vz5+xy7dYtbX71lXeLCuL/njRTLUr6Wkv9Zid+OIZ11WrG+9j81ys6KHe0MhUy9s7RDP3t0r/bU9cS/OcUu+t0QSoZ+8J1JOunYvKS5dHtC2rjFq7eXdmrV+m5t39mjUDguMge70dQ+bkZltxmqqXZpzsxsnTQ/V7OmZSkvN/kI7tIPuvW1u/Yk7sxQbA4J84gtKy126MarS3TWgly5nLHlPX5TD/2xRU+/0qVQOPEiYCPFdqJf9vtGGimWpfp5fvurZZo4ft9nk6xdsUJVZUWaNX3yPscCR7h7OJILADhghmFo7jGD/2KfkZk56Bi73R69BncgLpdr0FAsLRuj0rIxScuzs7I1cfKUlO8ZaF3/+Q40/5mz5iQtczidmjR5qiRp84Z1stvt0ccOAVGDHN1L1xFd05RefbNVre0BffsrE1VWGoknu93QaQsKdfTsXP3tX03629NN6ugMar+P6A5wdW5Otl3HHp2r+XNz5feH1ekOaesOn7bu8GlvnV8NTQE1twbU2RWS2xOSZES31PeIoKxMmwry7Covc2pMqVOV5S5NnpCpyRMyVJhnl8tlG/y+eAmnJceOsg50RDc7y66FZ+Vr8cWFCUdvJcntCesHv2jUuys9il5qn+I5uuk8ojvghc8ADhqRCwDAIdiyaaMqx1YpNy9PXo9Xv374lzr/oo8qOyv13aFxhBum0P1gdZduumWjvvKlCTr2mDzZbZF1+XkO3fCxSl16UZn+/nSTnnmhWc2tgf0I3ZhgyFSXO6TCfEf0PYYhZWTYVJZhU1mJM+VR3z5d7pDCYVMF+Qf3a6i7O6SsLFv0M/VNN9VpyX2ha0jKz7Pr3FPzdOXCIo0pTdx32JQ2fujTfY82adtuf+/SxNObhzR0AaQVkQsAwCF49ql/6rlnnlJJaZna2lq14NTTkp4VDCTeZ2noQ1eS6hv9uvW7W3XJRWW67spyFRfFHn9VVOjQpz9eqcsuKtVrb7frhVdbtWWrN+6a3d7ZpAjd5paAvnTrVp19WqFOX1CgiTWZynDt/71MU51yvC/BoKkde3q0ZLlbr7zdpbu/Pk7lZc7EQSlC12EzNHlihs46KU9nLMhTeWnyr75d7rCefLFdf3mmQx5P7+HbAa7jJXSB0YHIBQDgENz8v1/Tx2/8rJob6lVRNU75+QUjPSUcphLvxTQ8oev1hfTnv9drybIOfeqaSp1zRpHs9tj64iKnLr+4TAvPLdFTzzfrgYf7P06rN3T7qW3w67EnGvW3p5pVXZWheXNyddT0HNVUZ6iqMkMZrkMLOL/fVH2TXzv3+LXpQ69WrvNox+4eeXzhvlmlFhe6p56Qp8svKNS0yZnKTnGjqrApLVnerd//vVUf7uzpvQny4M/RJXSB0YHIBQDgEBUXl6i4uGSkp4FRYCRC1zSlnbu8uvPeHXry3036xDUVOmF+vmxxp/tmZtq0fZev99E2qU5dTv1BvD1hbdnm1ZZtXtlszcrMtCkr066yUqeqKlwqKXGqtMipggK7Mlw2GZIKCx2y2wy1tAYkGerxh9XRFVJbR1DNrUHV1gfU0OSXrycsr8+MXBsbP5+Ul7Qmh2Z1pVPHzEq+bMA0pbWbvPrjP1u1Yp1XwWD8tqP3hx6+0AWQdkQuAADAcOgNnJEIXUkKBcNatc6t1bd9qCkTs3T5ojE645RC5eU61NkV1JKlHX1vTnGNbtKHUfzjhQxJ4bApjycsjzeslraANm7xRNbEbeeg77rc//FC/dow8nETQ/PVd7r06WvL1Nfybk9Y76/q1hP/bteG3kcDJd11uTdihzV0AaQdkQsAADBcRjh0ZZoyDUMfbvfqB/fv1G/+WKczTilUfr5Tbe3xhzQPLnSTr+NNfJ225+immk2/0G1oCmjVOo9ysm164z233njPrT11fiU8XmiQiCV0gdGLyAUAABhOh0noGpIam/z66z8bE8fEhWVf6Pr94ejq7Cy7JtVkattOn0YidCdPyFBOdvw1trHDuvGha5rS9x+ok9sTUo8/MT4HerwQoQtYw/7fCg8AAADpYcauJO2/LNVrcz/GxBbte4xMc+B9J66QaUqbt3qjS/Lz7Lr7tkladH5J712VY9fsJsy433aUsIukN6R+T9zUMlw2XXxeoe74anXCHZr31vsT92zG3tvSFlRPj5mwvdiuUn3m/svMFKuSxyTuO9WYhJVxbzXV70MDSAOO5AIAAAyHhCOXOqyO6CaN6XeU9flXW3XReSWqrHBJkirKXfryF6p1/bUVev7VVr2ztFNbd/jU4zcVCptpOaJrtxvKcBmaVJOpU0/I17mnF6ikyJHwMdo6gnrmpfakb3Cqa3RTHYk9HI7oAkg/IhcAAGDI9R6x639d6SgJ3fqGHv3ggV36+v/UaExp5Pm0hiGVljj1sSvL9bEry9XSGtCmrV5t3eHVth0+1db71eUOyesLKxgy5Q/0JZ2R8BeX0yanw1BWpk15uXaNrXBp8oQsTarJ0LTJWSopSv3raltHUD/+Rb227eyJ297oC10A6UfkAgAADJvRG7rvf9Cp/7l1iz5/Y5VOPDZfDkfidkqKnTq52KmTj8+PLuv2hNTljlwT6/WFlUpWpk0ZrkjgJl5rm1owaGrFmm498sdGbdnWE/umpYhPQhc4MhG5AAAAwyE+jEZp6O7a49O3796hubNydPFHSnTicfnKybZrIDnZ9kHXHwhfT1hLV7r19IvtWr2+u/dmUlLS44UIXeCIR+QCAAAMFwuEbo8/pGUru7RitVtFBQ4dNy9Px8/L0+yZuSorccpul2y2Q4u3cNhUKCw1twS0dqNHK9Z0a+lKt9o7QwqFImMGfLzQaAtdAGlH5AIAAAyD5B4avaErmQqFpJa2gJ5/pVXPv9IqSSopdmnC+AyNG5upsRUulRY7VVLsVG5O/KnIifvs9oTk9oTV0hpQc2tAdQ0B1db7tXNPj5paArH3JLxtH8/RHU2hCyDtiFwAAIBhMUAYjXDoOhw2ZWba5O4ORZftb+j2PUe3T0urXy2tAS1f5Y7ba+zzGSmWpXptJL2h//cpMpH9CV1bb1uHw4dp6AJIO56TCwAAMNTM2BdmimVJsTNMz9G12w1dc0W57v7OFFWMcSW8b8B9J65IsYv+nyf22tyPMb1bTbmvpNfq/xETxzjthj57XZkWf7RYdrsRNz7V50lcNmzP0QWQdhzJBQAAGA5xR/vSeUT3gvPKVFwUeaxPS2tAL7zcvF9HdG02Q9dcUaHPfLJKDoehu749RbfcukVt7YHo+w72iG7KI6+9r+OObQ44JuG71G9f+3tE17BJ//nJMbr0gmKFTVOGIf3pyVaZ5v4d0T33lHwVF9llyFBbR1Avvtk1dEd0AaQVkQsAADBchiB0F19eoRnTciVJ6za4I5G7j1OX7XZD115ZoZs+PS66bOrkbN3wsUrd++CuhPeN1tBdeHaRLl9YLEmyydD/Z++84+Mo78T9zGxf9WrLvVdsbDBgwPRiejc19IRwRy6XkHb3uyRcAjkCJOQCIbkQCBBIQocQejPV4Aa2AeOKq2zLliWttL3M/P7Y1e7O7uxqJa9kWfo+nw9i5513vu87s7vS+/htN1xRD8CT/2wlFtO7FN3zT6tk6kQnAOu+CsUlt1eGLguCUGxkuLIgCIIgCEKfkDkEt4hDl7NLyTl02WpVuPyioXzj6hGG00uWe7j/4e0mAQ/MocvvftTO0hXpc4PhukvruPSc6uQevwUNXc48LvrQZUEQio1IriAIgiAIQp+xf0XXqsJlFw7lusQQ5U4WL/Nw652b8Hpj5nEPQNH1+mLcfs8OlnyaEl2rReHqBbVcfFZVAXN0M++il0RXZFcQio5IriAIgiAIQl+QKT19LLqqApde1MD1V43Abks1AZcs93DbXV+l5uLminsAim6rJ8ov793BspW+ZA6bTeGaS+q4+Oyq1MjrQkRX7x3RFQSh+IjkCoIgCIIg9BW9IbpZZRi0EYgL7uWXDOPG60dis6V6cJcs93DL/2ykpTViWHU5M0562oEouj+/e7th6LLNqvCNy+u57Nzq5BZDWaJrhoiuIBwQiOQKgiAIgiD0JX0suharwuUXN3DDtSMMC0Mt/cTDT27bQHtHNO2ygSm6Hd4YP/91I8vTenQVBa6/LDFHN9fQZTNEdAWh3yOSKwiCIAiC0AfkFaNeEl2rReHyBQ18/eqRWNSU4X681MPPbt+I1xs1uWxgiq7XH+O23zayOG2OrqoqXHNxHRefU2UiulkPPaOoYomuIAjFRiRXEARBEAShj+gN0c2FqipctqCB668ysS+/QwAAIABJREFUDlH+eGkbv7hro2E/3Kx6DlDRbfNEueNe42JUNpvCNQvic3SNQ5fN6AXRFQSh6IjkCoIgCIIg9AVJJyuy6GZJno6qwBWXDOOG64yCu3hZGz+/fQMtLeHsOFmhB6botnqi/OK3jcY5ujaF6y+r47JzazL2+s0KQ0YFRHQFoR8ikisIgiAIgtBX9IboZmC1KFxxyTBuvH6UYYjykuUefnLretraE0OUC5DYgSq67R0xfn53o2HVZVWNi+6l51YntxfKQkRXEA4IRHIFQRAEQRD6BD3jf8UXXatV5bJLhvH1a0cZeiQXL23jltvW4fXFMkINXtH1+mLc9hvjqsuKAtddUsclZ6fm6GZRdNEVBKHYiOQKgiAIgiD0Gb0ruuPGuLj+6pHYrMY5uLfesQFPe9QgnyK64OmIcXvGHF2rNb4Y1ZiRjsyrTO5HRFcQ+iMiuYIgCIIgCH1BDoktpujabCp2W6p5t3R5G7fevp6W1khaGSK66VVrbYty+707DNsL2WyKYS4zemf+XhBdQRCKjnV/V0AQBEEQBGHQoANK2ovk/3QUlLx5DLkMeczZ8JWfe/+wGbtDZUi9vfOCFEr8R2dq894wMS29rjqZqzDpuo6SnmaSB11HV1JxDXmS9U7cj65kXK6DrhjydB6nLs2dJxE1flc6WCwKtTWdzV3F8L/OF4nHwO8faeL/fXsY48c4yUX8VtJuIvO9SlYnz/uZfBmvqciuIBQfkVxBEARBEIS+pOiia86EcW7+8sCsgqt1weWf0rQ7ZJTWA1x0a6utPHH/5IKfQSEUW3RlzLIgFB8ZriwIgiAIgtDrZMhM0YcuF5EBNHS5uI8nreSiDl0WBKHYiOQKgiAIgiD0GcUX3S1bA0WrWSr8wBDdYlnktsZQVryiia4gCEVHhisLgiAIgiD0AakRu3mGuvZg6PJdv9nImrVeRgxPm0uaNYxZyTu0GSAQSG0vpBgrnHkDaUn9e+iyP6Dx3Mt7C34G6XOUO2ncFeaVhW2mQ46LNnRZEISiIpIrCIIgCILQR/SG6Hp9UR5/qjGeL31RpUx/UhRjlrS0zOOBIrod3hj/e/+OxH1nLjyVOMg8JrP6aXl6RXQFQSg2MlxZEARBEAShT4gLTWpYbvGHLhteZPpTouCcw4czjgfa0OWebC9kmsfk/du3ocuCIBQbkVxBEARBEITeJkN6RHRN8ojoCoJQJERyBUEQBEEQ+gIR3WSaiK7YrSD0JiK5giAIgiAIfYWIbjJNRFdEVxB6C5FcQRAEQRCEvkREN5kmoiuiKwi9gUiuIAiCIAhCn5BbekR0TfIMEtEVBKH4yBZCglAgAW+MWFTnw+daTM4qJq9yH2TvihffVEDP3MnAJE92sUoXSWal5Ugx210hx1UmRZvnyTrIkyf9yPxl8ih30cbnPPIgK7WjrThKFFT5Z70+R4kG0cNe2LgQdn+eP2/OgzzXdJlPz4rXxcc2T2GFZNWzMuW9Ju93Ln+Q1EYvhRbWjWfsriM0+XJ0ixNsZV3VTigAJfH5iUuV+VYzvbWPrpKZJ/OPTaLgtFJJq0zWcSpU7jyppP67vVDq8SWeUkZZWdcY3iOTPJnvQ/JWcr+fimJ8KwRBKA4iuYLQBZ49EZa97uGjF1rwt8cSf9xMhFXJTEu1Xs30NjtOdmtXMR6Yaa6x8bAvcTJa8JnXZKWZlN39OIknZdLyVow/MhrnWTUxjaMAy/8ZAgXGzLIx5xwHDZPk116fEAmgb3gTProHti9NJscbe2nkkk8zqcu8Npmeow4KKOkS2K2ywLSLJbNBahrTRHTztWKTMbsQ8lzynOOZZhVplp5xrZL2wrnoR2iVEwjN/Dbh8ReiO2ty34PQJeMnlTN9ZiWfr2ojn8SK6JrkGcCiO3mSm7FjnAiCUFyktScIOfDsibDklVaWv+6hfW+EXH+szP7QJ/4M0vkXNvX3L/cfPbM/sJkNGMNG8gkyGw89joOOYvYHP63ahjSTsrsfJ0eDofPppX5kNbwMjaEccdIbdptXRNi8IsK4Q+0ccqZdZLc3Wf0P9A9/i7Lzk6xT8cZpxlA983ZslqVlXZtMzyGROonPid6Dsjr/ESejPPM2b8ZLJRGggDoaYibKK7Ceqd89ilFWMx0nX3rGtZntc7VtA673vo191X2EDrqR8JQrwFae40YGNuFIhMeefomZ0yYxffI4XM7ui0l1jd1UgkR0U2mDTXSrqiwIglB8pJUnCCasXdrBKw/spmlLvBewa0EV0e15nL4TXRT4anmELasizDnbwawzHNiducxD6DatW9AX/RZl+UN0zrMzEzsR3Vz17J+iC2BpW4v7g+9i2/YaoTn/RbT+sBw3MoDR4autjWza2sgLr7/LhDEjqK2uQrXaCw5xzElDePft3ShmD1lEN5k2mET3yMNlOoAg9AYiuYKQhq7D4pdaeOH3O9E16J6giuj2PE5fiq5OLKKw+NkQ27+Icc6P3FjtIrr7TMsmePR8aNtsUMJcYieim6ue/Vd0AWxbXsXW+A7es14k2jAvx40MbHRA1zTWb9rG+q+2oigK23buZsrUyYwdNwbVkrtn7uBDqhjS4KRpZ1BEN0+ewSK69XU2DpruQhCE4iPLsAhCGktebuH53+1E0zqbtKlGsbH5l3ilZxwbT6SldTeOnpkllZaMY9bIN6b1OI6xolnXZKWZlN39OIknZQiT9vT0jONUwZk1MY2jG07HjxrXRnnhTj8hf3bdhW6w9yv0R89Hb92c5YKQ+V6kp2c2bE1f5ohpboq5yop/FDPMsOCyIMt+kzHNr029VLJi5qyjIWZag76AeqY+3+bPNKtIs/SMa/WsFwmiQUpfPh9r48LMqIMKPfG7R9N1tm3bxuuvvs6Df3qIN19/i82btqCZvNF2h4WZsytJ/k4ye8gZabLqskmezN/vZh/wzC9M1mc+d55EVNOyzL6IPV11edpUF3a7NMUFoTeQb5YgJFi7pIN//G6nyR/t7gqq4cQ+xMn+Ayuim3GcKjizJqZxjG2N+FHjmihv3R/IqrdQILqG9uj56K1bUhKZUxTN0kV0c8fsx6Ib7qDktcuxeNZlRh2UaJqGDkQiETZu2MjLL77MIw8+zAfvfcDOHTsNeS+8dDQ2m0ryd5LZQ85IE9E1yZP5+93sA55DPvUC8iSimpZl9kXsruharApnnVGVWWlBEIqEDFcWBKBtT4SXH9yFpnX+QdP3ccixDF3ueZzEk0o9OuPTS/1Ivx16OnQZFLasirLmvQhTjrUhdA/9jZ9B69a09zYxLNjw5iTOGd6L9HQZumxez/49dFkJteJc9B/4T3kM3ermy9VfsvCtd3LcUDbLV60uOO+BRCwWAyAQCLJq5WesWvkZlZWVzD3yCMZNGEfDCDcLvjaavz20ieTvJLOHnJEmQ5dN8mR8GQ6kocvnnV3N0KGFz+cWBKF7iOQKgg5P372dXZuDgPkfUhHdgS260TC8/Wc/QyaUUTVMBrgUiv758+iLfpc4QER3EIqubfPLOJffTuCIWxk+YjjzTzs1x82kCAYDbPtqEwdPm4jDceA08qPRGE+/9GZBeVVVRdM03G43U6ZOZuLkidTUpLZgWnDFWDZv9LHovd2I6A4+0T38sFLOO0e25BKE3kQkVxj0rP/Uy/rl3uw/+CCim37dABfdWFRh8bNB5t/kzi0dQopoEN69i8QKbXFEdAel6Do+uYvg7O9RXl5JeXnX2wt5OzrwtuxlysSxlLgPnEV3wuEIvJT7vKqq6JqG1WZn7LgxTJk6meEjR2R+fBJ54RvfmkjjVj9bNnsR0R08ojtyuIOrrqiXvzOC0MtIl4Uw6FnySku8qZpsy+WeA6Sn/exsb6afSWU3OSNzdHsQJ/GkjG9I6qeecZwqOLMmpnF0w2md9R9HiASz6yxko29bitZkMtzU8HYqWWnJczkes8zRzVXPtPIKrGfq823+TLOKNEsvcI6u/cuHMqMNCpSEHFpUC2PHjeX0s87g+huu5eRTT2JEDsHtpLrWwS13HszYcZ1byMgc3a7yHOhzdEeNcvKjHwynqkr6mAShtxHJFQY1Pk+U9Z96AYMvkaVrIrqpPAULqnnZ3Y+To8FgeGne8Mq8a7M4xoadztpF4az6CiasehrIIWeGt0dE1zzmwBJd+/ons+s8UFEUFEVBtagMG1rH1CkTuf6b1zH/9FMZM3Y0qlp406qm1sFPfjmTOUd0Dl0V0e0qz4EqurNmufnh94ZTVSVrPwhCXyD/lCQMarau8eNvjyaO0ofBQvxPmQxd7s9Dl80WkUq7HXoydHnLiigzTnIg5CHYhrZ1SfLQdLit4XMlQ5fNYyoMlKHLattG1LZ1aJWTclR+YKAqCmNGDmPWQVOYNmkcGzdvo3FPK1Zrz5tTNbUO/usXM3nxme288Ow29jQFkaHLXXwpDqChyzU1Nk6fX8380ypRZYyyIPQZIrnCoGbDCm/aUZokiejmj9PPRBco2hzd7asjCF3g2wN71hiSRHQHt+gqkXase1YQHsCSa7VZ+eFN11Ba4i56bFVVOGfBSE45axhvvrKTJ/6yiY72qIhunjz9XXRLSy1ccH4txx1XicspAycFoa8RyRUGNWuWdGQvECGie8CJrvE92zfRjYZh++ooI6bJr8dcaGvMV5gV0R3comvd8grhiRfnqPSBj6oovSK46bhcFs6+YARnXzCCl59vpLUlzPtvN8VPKskfGSQ+RYrx2PhSMfufedyMa5S8eUzqZFbPRJrxMoMxZ33gFRST2zVPyxk3o57Z3ymTeIZnlPOBGZ5T+ukjjyqnstLGqafIHriCsD+RVpwwqNm9NQiQ8a+8IroFxxmAoqtpCm27YiK5+di7rnsCKaI7KETX0rYuR2WFnnDGecMBuOK6sfu5JoIgCAceMn5CEADIXKBCT/3U0/IYsuhmuZPtzfQzqewmZ2Qxqh7ESTypvO+Z4Wl2FpxZk5xxhK7p1iJPhrdTyUrLe61ZWdkfjzwxu1HPRAxZjKqL9FyLUQmCIAhCP0AkVxjUZGmeiG7P4gw40RUKRUQ3V8zBJ7qCIAiC0F8QyRUGPSK6Iroiut0kS8JEdM1jiugKgiAIwv5AJFcY3OgmAiSiK6IrdM1gE11FxTbycMrOvpfSM36NWjHCEF6xunHO+Tol83+JbdRRoKgiuoIgCIKwn5CVVQTBbBsEMrcciJ/VkcWoDrTFqFIvDU+zs+Cci1EJBWD80gzYxajUsmGUHPs9nLMuQ3GUA2CpGI7n75cmwzsP+wYlp94Giorz0GsJrXoC//u/QvNsHTyLUQlCDn7yw5uZf+Y5zDvu+ILy//O5Z9i4YR3f+cF/5s331muvsGH9Wr75re8k03x+H8898XfWr1vL2LHjOOeii6murtmX6guCcAAikisIIKKbrP7AE92e7aMrFMwAFl3F5sI151rcx34ftbTekE+tHG0o1lI7CZT44CjFXopzznXYp5xN4KN7CC79I0T8iOgK/Y3Fiz7gmSf+ljxWVQv1Q4Zw8OxDOeGU+ahqcQb8ff7ZCg49fG7B+Xc0bmP9mjVd5nvj1Zf5/LOVXPP1G3E4ncRiMf7zO/9GOBJm3rHH09rWikVVCQYC7NixnVGjxmC12fblVgRBOEAQyRUGNZmyUyzRdZVZcZVaIJGlfW+UaETvseg6SlTcZZZknoA3RsindRFHRDc9U+o9E9EtBnmF6QAXXSwOHBNPpuTE/8LaMCP7ws54JjFTKKil9ZScchvOWV/D9+ZPiX71Jno0mBVnQImucECxt7mZVSs+5bKrrsVisRANh/nqqw386vZbef2VF7n97nuLJrq9wU9+8Ut8HR04nE4ANq5bw7q1X3Lv/Q8xcfKUZL4vPlvJ9751Iw/97Skaho/YX9UVBKEPEckVBjnmPbH7KrrHLajh+EvqkiHv+deN7NoUymjQFi66h5xSwRnfSPUk/ePeJpa95ikgjohueqbuia7QFQNRdK0NB1N64n9in3QqisWeXVhW4dkxM7HUTaH8kr8TXvcKgffvJLrzE9A1Q4yBILrCgcvlV16DzZ76vL/95mvceet/8+7bb3LCyafux5rlp8RdQom7JHnc1uYBoLa+PtclgiAMEkRyBaEXRDfe65rK6u+Ikd4a7K7oukrS4gGxiN6NOCK66ZkKEV2hcAaK6FrK6nHP+zbuQ69GcVVmxY/t3YjiqkR1m8zty7xFXSe2d318CHMnqgX7lLOwjZlHaNXjBD64C61jpyGGiK7QXzjhpFP53a/uZOP6dQbJDQWD/PP5Z1jzxeeUlpVx3EmnMPvQwwzXBvwB/vHcU2xY8yW19fXMPfqYrPiapvH+wrdZsngR7Z42RowazbRpMzjmhBMN+dau/oL3313Itq2bGTlqDBddegWVVVXJ8+lzd1/6x3Pce/edAPzw2zdRVV3F9JmzmDlrNj/+wXcB+MG/38Sw4cM554KLC54fLAjCgUn/HYMiCH2BnnphaKAVa9Vl89zJ9mZGJXKuumx35WjFFhxHz8xirKluXvPBuuqy0AV6nsPMc/191WXVivuw66j+5tuUHP3tLMHVoyF8C2+n9U8nEdu7MSN8ju+lFqXtwZPxv/M/6EGP4ZTirMR5+I1UXP8uzjlfR7E6DfXKVc/Uy2yb7E+rLgsDA13XicaiDBnakEzr6Gjn32/8Ou+89QZjxk8gGonwX9//Dq+8+I9knrbWVr51wzW88sLzDGkYRoennV/89L8I+AOG+L+7+07uuftOFEVhyrSDaGlu5vPPVhjybNywjl/eeguBgJ8RI0fzxqsv8+83Xk8omBrynz53d8y4ccxJzPudd/wJHHP8SUybPoP6+iHMO/4EAI5JpA8bMby4D0wQhH6H9OQKg5q0Dj2y+hP3oUc3FEgbighY7Upm7oyem1QpZj26mjFcspzuxZEe3fRMqffM8K4IhZKr98/sXH/s0VWs2MfMpeyM27ENm5UdJxoktPZVvK/9hFjLpkRZ2SYYH+KefW+afy/+hb8g9OljuE/6b+zTzjEIrVoxgpIz78FxyHX43/opkc3vQiyS8X3OVf9+3KMrHPDous7fHvkzNquNuUfPS6Y//ugjAPzmvvuTQ5uHDhvOg/93H6eediYWq5VHH36AWDTK7x98hJLSMgA2b9rIjdd8LRknEg7z2isv8W83/5DTzjw7b13ue+Bh3CWlAJx6xpl88+or+PCDdznx5PlZeafPOJhzLljAsiUfc84FF1FVVZ08d875F/HuW29yzvkXyZxcQRgkiOQKg57eEN32lmiqAAWq6m3s3RHOzF2woHpb0+IBZdWWHgqziG56JhHdfeRAFF1FwVY/ldLjbsYx4wIUS8ZKq7pGZOtivO/cQXjjQtBiybJMSYhujlPE2rbQ8cy12FechOu4H2EbeQSoqT+91oZZlF/+LKEvnyfw3h3E9qwmPmz+ABVd4YDkB9+5CbvNxqoVnwJgt9v56S/uoK5+SDLPwjdf54JLLjPM3T3upJN57OEHaWzczqjRY/jgnYVcdOnlScEFGDN2PC63K3lssVpxOJy8/fqrTJ0+ndFjxpnWafyESUnBBRg9ZhzVNbXs2L69aPctCMLARSRXGOSY98Tuq+i27AwlcyoKDB3rYMOn3mQLtLuC2tFilNzqBntaG1dEt+s43RNdoRscQKKrltRQctSNuI/4OmpJbdY1sdat+N7/DYEVj0O4w+xuzdFzd2J2Vjm88S0i2xbjmHERrnnfw1Kd1rBXrTimX4Rt7PGEPnmI4OL70Ly7RXSFPmPO4XOx2+2MmzCR559+khNPmZ8c+gvxebYte5t54Pf38sG7C5PpsWj8b5Pf68Xn9+Fpa2XYiJF5y1JVlf/86c+5/757+ObVV9AwfARnnH0up591LqVlZXmvdbri2wQJgiB0hUiuIPSC6DZtCREN68lhyuNmlPDBs3sNLdDuiO7urSFD43XkFBcWi0IsqndbmA13J6KL8b2X5nohZAldPxddxWLDOeMCSk/8Ida6iVkB9EgA/+I/4V/0e2KexkRqju2FCsVEIPWwl+DyhwmvfQXXUd/CefiNKDZ38hLVXYvr6O9jn34RgffuILTqr+h67IARXeHA5ZLLr0z20DocTp5+4m9cdNkVjBg5GgCr1YKqqhx93PGcfd6FWdePGTceq9WKqqp0eDxZ5zM5bO6RHDb3SD5b+SmL3n+XJ//6KC+/8Dz/99Bjye2ABEEQ9gVZeEoQgM4mmp56SVyP0rOk5Um7zmxho46WKHu2p3pzR051U1JpNcTJKDWjNyjtlQ47NwXxeVK9ufWj7AwZbc/I3XUc4xk9M4vxjvWsJ5CIk/UEehYno/urvy1GJeRDybvIU9Zh5rm+WoxKsWAbfSTV179A5cX3Y62bhOGfqWIRQmteYe/vj6fjlR+nCW6Oenb3o5H9UQRA8zbhe+OntP1xHuEv/4keTf2uQFGwVI2l9JzfU3HNm9hGHY2eNrzZPGa2ZfaLxaiEA5KLv3YVZWVl3H/fPck0m93OyJGj8bS2MnPWIVn/OV0urDYbw0eMYtEH72bFzFx4qpMZB8/mm9/6Dj/9xS/ZuaORDevW9tp9AYSjkV6NLwhC/0EkVxjUdHu15AJFN+CLsXGVN5lSWmFl2pFpw7C6K7oarP7IOHzyiLMqeyTMIrqFiK5QCP1XdBUs1WOpPP831H7jZexj54GS9udO14jsWEHb36+i5dFLiDbF58Gax0yrZ086+XMKpE6seS3tT15Ox5OXE21chmHvXEXFOvIIyq98idKz70Otm0J+Ke0foisc+JS4S7jquhtY8tEili9dkky/8rpvsGrFp/zxvt/iD/gB2LO7ibVrVifzLLj8ayz5aBF/+fOf8HZ00NbaykP3/yGrjBeefZod27ejaRrBQIBliz9GVVXqhw7tlXvqXCX6rVdfQdM0tKzVHAVBGGiI5AqDnB5sC1Sg6K5e1E40kmhGqjDn1CpszvSGdvcEdcXb7YZVlg86ppwhYxwiuj2K04XoCgXT30RXcVVResLN1N74Gu7DrwGLcVZOrH0H7S//P1oeOIvg6hdBz/x+m9XHvLx8EqlnjvU1C68DukZ43at4/nIWvld/hNa21RjIYsdx8JWUX/UazmN+gOKqzhNTRFcoDqeddQ6jx4zj/nv/NzkHdt7xJ3Dzf/yYt159hQtPP5kFZ83nygXn8fijDyevO+W0M7j6+ht44rFHWHD2fK68+Dx2N+1i+MhRyTzt7R5ee/lFrrtiAWefchwXnnkKLz73DN+6+YeGha6KSW1dPQsu+xpP/u1RLjrjFH7x0//XK+UIgtB/UHSz1qIgDBK+e+LyxCslYw6bkvqppNKMWdLypF3XGcfmULnhjnGMnhafcxeL6jx+xzZWvdduGiejVEhfdAYFq13h6p+PZPzBJcnU1Ys6eOKOHcQiesFxjMWmn1EysxjvWMl6Aok4WU+gZ3GMFc26JivNpOzux0k8qYz3/uRvlDLzpME1L+zFN99n+NhxDGlo6DJv7PmbiS15xJCWNX9VyXOYeS7H3FfTeaWGt1NPpSkqroPOpuykH2EbOs3Ycwvo0SCBTx7H+85dxFq35oiXu44ANd98C9uowwGI7lzF3vuOStaz7Lzf4Tr0mnjGWITd/12V+Kyn3VuXZSlYKkfjnPuvOOdcb9xDF+K9v3u+IPDBXYS/fD6+5ZBpTN3kGWffT/qFSud1BdUzs9rx67T6Q/Fd8kGeguJ4Ozr44pNPOPW4uZSkrbp7IPLF2o007mnloEMO2d9VEQYBn3/yCcPrqpg+efz+roog9HfukJ5cQQB6o0c3EtJY/PJeNC2eYLEqnHRFPa4y1TRORqlZPbHRsM57T+0lEk6lTplbxhFnViVWtZEe3e7Hyd2jK3SP/dajq6jYGmZQc+3TVF32Z2wNBxkFV4sR2vgee/94Om3PfZdoy7Y88XLXMR95txcqtEc38SLWthnfa/+B54ETiGx6F/S0lWQVBUv9QZSe9yBllz+PZejBpA/I6jc9uoIgCIKwnxHJFQY1RmkqvuiuWNjG9nWpBTeGjnFy8hX1KJlt0AIFdeMKP5++6UlmV1U46cpaJh9eKqLb4zgiut0mx+Ppa9G1Vo2i4tw7qbvpTZyTT87Y81Yn0vQlrY9fx94HzyO8bXlSGPPVs8cfg6KJLqBrRHetwvPo2XQ8dRWxps8xzNdVrdjGnkDF9e9RcvrdqBWjyeiLRURXEARBGMyI5AqDnt4U3WhE59U/7yIWTZ098qwaphxemjNORqkGQdViGm8+toemzanVWB0ulQtvbmDioSUFxxHRzUwzE10hH7meVV+Iruosp/SoG6j711cpPeoGFJtxyGuso4n2N/6H5v87Df/K50Az7jPdVT2L/u8dPRFdiPdCr34ezyOn4X/7FrSOncbzFhuOOTdQfs2bOOf+G4qzMiNMH4uuIAiCIPQTRHKFwY2pNBVXdDes8LL0tdZkqsWmcP63hzNktDNnnIxSDYLqbY3w3D078XlSwxjdZRYW/GAYkw4vLTiOiG5mmohud+lz0VUsOKedTu0Nz1N57h1YKoYb88Qi+Jf+heY/nknHW3ei+Vt7XM9+I7qA5m8l8MHdtD98CqFPH0GPGrdjUcuH4z7ldsq+9iL2SWeCat1Poiu9uYIgCEL/QCRXEPpAdF97eBc7vwomUytqbVz6o5FU1ttyxsko1SCo29b4ee6enYb5ue4yCxf/cBhHnF2FYlFEdHsUJ7uuQn76SnStdROoufoxaq58BPvIQ7MWlgpvXUrzH8+i9ZnvEN29LqtixRZdPUc987IPoqvrEGvZhPfFf6P90bOIbF2UkVHB2nAIJRc+RtmCv2Opm7qfRFcQBEEQ9j8iuYIAvS663rYoT/xqG+0tqY3oh413cs3PxlDdYM8ZJ6NUg6CuXtTOk3c0EvSlenSdbpWzbhzChTc3UFJpFdHtURxpqneX3hNdBUv5UCrOuIWzUJwJAAAgAElEQVSh31uEa/oZKFaHoeBo81e0PvEv7PnD6YQ2f4yuxUzj9bSeXX0aujWXOBFwX0QXLUZ060e0Pzwf77PXEWvZSPp8XcXqwDbpTMq//gHu+XehlHZuydI3oisIgiAI/QGRXGFQ07U0FU90G9cHeOH3OwgFUg3ShnFOrvzJaGqG9Ux0v/ionSfv2kF7c2rOoaLArBPK+cado5h4aAmqxbT2IroFxBEKp9iiqzhKKTniKuq/9RrlJ95slFviQ3jb3/41u+87Bd+yv6FHI2lhcu+j21PRVVyVKHZ3nmvT991RUF1VvSe6KKDHCH32BO0PnkDgg7vQfHsM+RSrC+fhN1F+/fvYZ1+H4ihDRFcQBEEYLIjkCoOevhTdVe95eP53jUTThhkPG+/kutvGMHKyK2ecjFJTjU8d1izu4K+3bWfHhmD6ldSOsHPFT0ZwwXeGUjfCnj9ORm1FdIWeUCzRtZTWUnfd36i+8DdYq8cY80ZD+Fc8w54/nkv7q7eieZtNAxVNdBULzunnUH3dC1iHTDO/EAVUa+pQtVJ57Qs4D7oALHbzS4ohuoDmb8b/9s9pf+Q0Qqv+lrXIllo+gpIzf0vppc+i1kxARFcQBEEYDIjkCgJ9J7q6rrP8jVaevbeRaCR1pna4g2t+PoZDTq5CUTMbj12ILrBtrZ+Hf7KNFQs9hnpa7QqzTqzgG3eNYv61dZRUWPLGEdHNqppgQsZHw3iuCKLrnHIKzgnHYBiGAIQbV9L88BW0PH4j4caVhe2jm6OuhdTTOmQqVVc8RuWlD2EbPtswD1j3t6ZfhR5qN8SxDZtN+YIHqLjs71iGzshRWHFEF3Rie77E+48baf/bBUR3LDNmVixYRx2N45DrOxNEdAVBEIQBjUiuMLjpljQVT3SXvdbC07/ZTsifGrpcWmllwc3DOe+mYThL1G6LrrctwtO/3smTdzbStjuSfjXucgvHXFTNd+4fyylX1VI1xJZor4vomseR1npX6CailDy3j6Kr2JykD/+NeXbQ8szN7L73FIJr3kCPhvOXtY+iq5Y1UH7WHdT+60Kc085CSe+N1WJEtnxM+4s/NMT0fXgf4c0fGnpSFYsdx+T5VH/zHcrO/BVqeQNZKxAXTXQBLUpk45u0P3wq3hdvQvNsM+RXHBVpYXpJdAVBEAShHyCSKwxqui9Nxe3RffS2LbQ2pRrsqkVh7lnV/MuvxzF2htu4gGyB++iufKed//veZha/2Eo4qJGOq9TCcZfUcNO9Yzjv20MZNd2FzUFWnEEvukJB9KboptP88FV4F/0ZLRI2OVs80VUcZZQccT2133qXkqP/FcVeYggYbd6A54XvsveBM4k2rTbEjLVuofXP5+B57ltE96wzlKFYHbjm3kj1N9/FNfebKK7KrLoWTXQBPRIktPwhPA8cA7HsZyaiKwiCIAx0RHKFQc/+El3QWbu0gz//eDObv/Abzgwd6+TaW8dwxjeGUlZjy4qTUWqWoLY3R/nHfbt4+CfbWLPYSyxiLNlZonLIKRVc9z8juea2kRx1XiV1I+0oGOMYixXRFRJkCmSRRTcTLZL6fnRrNeMCRRfFinPKadRc+wwV592NpbzBWH6gFe87d9PypzPxL3kIPRY2lU89FibwyV9peeB0fO/chebfa4ijlg+j7Iy7qLrmnzgmn07mqnDFFF0Azbs752e6N0RXEARBEPoL1q6zCMLAR0dH0ZW0dpuOkt6IUzLS0NF1BUVJRQAl/jORP/MKdB0UheTpxHW7Ngd5+JZNnHbtUA6bX43FGj/rcKnMO7+WqUeU897TzSx7tRVN05NxMkqNNz6TtxBP2/y5n+3rAoye5mbeBdVMmlOaVmewWBVGTXMxapqL4y+NsWNDiC8+7GDjSj+tOyOpm09WP+248+7SbijzuemK4Qkk4ugoSvoT6GGcbr9n2WXniiMUgOH9UlB03cyz0j+uGelK4vOUHc+0rHzX5isrs56dlpZIs9ZPovyU/8I59TQUmyvjWo3AFy/iffM2orvXktyqR8kKbTjQvLvpePM2AiufovSEH+A86PzUwlSKgnXYbMovfZTw2lfxLbydaNMXyRi6kqhjVt3NyzLeu/GfqUwxjZnYVzvdsXO8b6l6kvhupZ6nfHMEQRCE/oJIriAk2J+i6/PEeP53O9jwiZezvjmMyvp4762iQO1wO+f/2zAOm1/Jm4/tZv0nPrRY4aIbDetsXOFjy+d+ho5zMu+CaqYcUYrdaRzI4SqzMH62m3Gz3ETDGru3htnwiZ/1y33s+ipMNKyhaYNDdIUC6WvRNUjYvomu6qyk9LhvU3LUDajO8oz8GpGdn9P+2s8Ib3gHPRbJWc+c8qlrRHd/ieepGwgse5iy0/8H69AZycWrFKsTx/TzsI8/kcCyP+N//240f8uBLbqCIAiC0E8QyRWENPan6MaisOp9D5u+8HHatQ3MOr4CmyPRIFZh5BQ31/x8DBtX+nj/mWY2feYjHNIzSzUVXYBoNL5X7xN37KCizsbBx5cz68RyaofZsdhSNVEUsDlUhk90Mnyik+MuqSbg1WhcG2TbmgDb1gZp3h4m0KETDmlxaRTRHbz0hujmEqYiiK7iKME941zKTvkPrFWjs66NtW3H+95v8S95GD0ayl/PAuRT16KENr5H5I8n4ZpzNe6j/w1L5ehkBRVnOe5538Ex4yJ8C39J6LOn0MM+EV1BEARB2AdEcoVBTaHDV/tKdHVdoaMlylN3b+Oz99s48bJ6Rk1xo1oSTVAVJswuYfysErZ84WfxSy2sXebF3xErSHQ7hxx79kR476m9LPpHC2Omu5k6t5Txs0uoabAly0rHVaoy4VA3Ew51AxD0abTsiLB3Z4SmTSGatoTpaI7i88TwtcfQYge46Ap56fRQM9kqiuh2VXhPRFex4Bh3JOWn/j8cY4/KqogW8OD/5O9437uHWNv2bvc8dyWfWiSE/+M/Elr9T9xH3YRrzjUozorkeUvFCMrPvYfIrMvwvXsn4a/eQddjRRfd3O9bMURXEARBEPoHIrnCoKc3RHf8waVsWe0jGtF7JLoKsGZJB5s/9zPzuApOuLSemobUNiaKAmMOcjNqmovm7WFWvedh5bvt7NkWKlh0O4cyb/jUx8YVPtxlFoaMcTLliBLGzSxhyBi7qfBCfOGqYRMdDJvoYMaxpaBDKKgR9GoEvBptTRHadkdp2x2lY28Uf7uGzxMj4I0R9OqGhbD6o+hKj1Rh9JXo5pPqfNd2lmWtm0DZiTfjnnlexorJgK4R/PJVOhb+mvC25XTOu+3JEOuu5VMh1r6Djtd+THDVU5Sc8J84Jp+WWoBKUbGNOZqK4Y8T+vJFfG/fSqzlq30U3fREMn4v5IrZM9EVBEEQhP6CSK4gUHzRnXV8JVPmlPHqI7uIRXsougoE/TGWvNLC5x+0c9hp1RxzQQ3laastq6pC/SgHJ3+tnmMuqGXjKh+fvNHGuuVeIkG9INHtPPa3x9i0ysemz/zYnXspq7Yy/mA3Y2e6GXOQi9JKq3FLo3SU+EJZDpdKRR0MHZsScl0HLaoTi+poMYjFdKJhHb8nRiigE/Rr6DHwtkazguqajqIq6cUYXrz393aCvtQ2ScUSXaFw+rJHt9uiq1ooO/Fmyo75F9SSmqxo0d0b8Lz8U0LrEnvvmopiAfXspugq6ER2rMDz+JXYJ5xE6fxbsdZPTmZWbC6cMxdgn3ASgY9/j3/RvRD29qCs7Lp35u0N0RUEQRCE/oJIriAkKKboqqrCiZcNxWpTeeXhnYSDWo9FF8DfEeXdp/aw+KUW5pxayRFn1lA3wtjT6nCrTJtbxrS5ZQS8MT7/oJ1V77azY2OQgDeWaITmEd1k9XTCQY29O8Ls3RFm6SttKKpCdYOdEZOcjJrqpGG8k6ohNuwuBZtDzd3wJd4ottgUw7xfgIq6ff/189HzHQR9xjQR3T4go2u12KKb5UvmPtml6JYcehkVp/04K1isfRfe9/+Ad9H96JEAkPxq9p3oKjp6LExo7SuENy7Edfj1lBzzXdSyIckLVHc1JSf+GMXmwvvGLT3q0c0pnyK6giAIwgBGJFcY1PR0i5muRBfiDcHjFtRTNdTO8/dtp21PZJ9EF3SC/hgfPL+XZa+1MvXIcg6bX8Woqe7slZJLLRx2WhVz5lfhaY7w1Uo/65Z7aVwXoLUpghZLL9ZcdNNXb0bT2dsYZm9jmJXvtKMA7jILlUNsVDfYqR1ho36UnaohNlzlFlwlKg63mnO4c9HQs9/DeLKIbp/QS6Lb1djXQkXXUjnMeF3Yh3/543S881uiLVviien1RO9z0QXQo0H8i+6Lz9c95ru4Dr7YOF+3dlJCSnu2GFVOekN0BUEQBKEfIJIrDHp6R3RTzDymkqFjnLz4px2s/rgdPdbZYOyZ6IJCMKCx4u02Pv/Aw/CJLmadUMm0ueXJrYc6URSorLNxyMkVHHJyBT5PlKYtYb5a5WPr6gA7NwXxtcUKEt3Mub7+jhj+jvjeup1YrAruMgvOUgtOt0pZtZXyWitl1RbKqq24ylScJRbszngPsNOtolrjPb0OV66x0F2g06tzdIUu6C3RzVNOvrLiMc2HPTf/5SpC694mud+tWT33k+gCxNq20vHS9wmufJyqq541iG5nDBFdQRAEQegakVxhcNMN2emONPk7jPNL60c6ufLHY/jsfQ+vPLSTlp2hfRZdHYiGdbas9rP1ywBvPraHCbNKmHV8BRMOyd4HF6Ckwsq4mVbGzXQTi+j4vTGat4fZsjpA47oA29cHaW+OFiy6GVpMLKrjbYvibYsly0zenZIYumxVsFhVVDUut4oan1tsyej1zZbNRKS0ZG9LZ5d0cUVXl3GX3aOfim7m2xjZ8Rm6phW0j+7+El20GJGti9HD/mzJTcTo8fZCkEjUs06I6AqCIAgDCZFcQegF0X3tLzvRdTjuwvrkXrc2u8ohJ1UxY14FH73YzPvP7aF1dwRd2zfRVRJDdn2eCCvf9fDZex6cJRYmH1bKwSdUMnqqG2epiqoa78ViUyirslJWZWXsDDe6Drqm422L0bguSNOWELu3hNi1KURHa4xoJL4qsq7lF93sIdCp1ZJ1IBrRiUZiRiFVIFNQIVt004U5K62Ioiv0gH4oujlDmJXVn0S3yxvohuhm1bPzeyWiKwiCIAxcRHIFAZLtvUxJ6qnohkMxXn6wkU2feznnmyMYMtqZvN7mUDn2wnoOm1/DynfbWPraXho3BIiE9X0S3c6eYU1XCHhjrFjoYcVCDyWVVsbOKGHCrPjWQBV1NtOhwYoCikWhvMZK+ZGlTD2yNHku4I3RtjuKZ0+E1qYIbU0RPHuiePZECfo1IiGNaEgnEo7/l090cz23/raPrpAPpQBRLKLoZs7RFdEtXHTNLhXRFQRBEAY4IrnCoCbnokVFEF1N11n9sYdt6/yceMkQ5p5Ri7PEkozhKrUw98waDj2liq1f+vnkrVbWLuugbU84HmMfRDf9DnxtUT7/oJ3PP2jH5lCpH2lnxCQ3Y2e4GTLaQd1IB1Zb/haqq9SCq9RCwzhH1rlQQCPk1wgFNMIBjXBAx98RIxKM740bi0I4GN8/N70UXQdfWyy5CBaQp0c3KwWAzZ8FiYZ1Ed39gpL4bmQkF0F0zcgnkPnKyoeIbnFFtxs1FwRBEIReRSRXGPT0dEGiQqWpoyXCC3/czrI3WjjpsqHMPLbSMP/UZlcZf3Ap42aW4m2LsvkLH59/2MbapR1426JFEd3OFnkkpNG4IciODUGWvNKK061SWmVl2DgnwyY4GTbBxdAxDsqqC//V0Lk/7v7gnq830r43Pv+5mKIrFEoviW6O0rotulkBsgs7IERXz9fLnV9081Fs0ZWvjiAIgtBfEMkVBExkh2xJ2hfRRVNo3ODnsV9sYtjjLo67aAgz5lXicKrJaxUFyqqszJhXwUFHVxAOamxb42fNknbWfeqleXuIaFhL9HT1XHSTuXWdoE8j6AvT3Bjms/fbUS0KFqtCSYWVoWMc1I9yMHScg5oGO9UNduxOBdUS3wdY2T9em4Ge0QAvjugK3aF3RDcX3RJdkyqZx+x/oltwPRMxcoluVxRddAVBEAShHyCSKwxucgkS5mn7uuqypulsX+/nr7dvpqbBzmHza5h1XBV1IxyGPWUVJd5DOmF2KRNmx+fGtuwKs2W1j61f+tmyxk/b7gj+9hhaTCe9sG6JbqqC6ApoMR0tptO2O0Lb7ghrlngT2eNCXVZjpbLORkWdjfJqKxV1tvj2QFVWSqusWG0KqlXBZo9LsNUWN2GrrXekWE9/UUzRFbrJASS6OYYE9zvRzVn/fRBdPUdZIrqCIAjCAEMkVxjUFGsv1e7H0dm7M8xrj+zknad2M35mKbNPqGLczFIq6+ymjdjqoXaqh9qZfWIVug6e5gh7toVo2hKkcUOA5u0hPM0ROlpjxKJ6j0U3/Uwqe7znuL05SntzFOXLQDxWWkUV4otq2Z0qzlILFgvJOcgOl4pqTd8CKC7NJRUWLFbjzWauumxGZ56gN5a6u2KK7gBn+aov2bZjFzOnTWLsyGHd3xvY1MB6T3RNRx4XILo5q3+AiG7u+ndDdE0D5Kr/PoquIAiCIPQTRHKFQc/+FF1dVwj5Y6z+2MOXiz2UVdsZMdHFQUdVMP7gMmqHO0wbs4oClXU2KutsTDwk3tMbjej4PFF8nigtu+IC3NwYorUpgmdPhPaWKJGg1nkDPRLdrDMZcSIhjUhIx+eJQXrDOP2VknHc+drgtkbR7Wp7IRHd7hEIhli+cjXLVq7G7XIy66DJ+HyBgq/XO39kPapeEt0c/iSia3YiQ3RzBsgua59FVxAEQRD6CSK5gsD+F10l0RHSvjfM6r0RvlzcjsOpUjPMwaQ5ZUw4uIyxB5Vgd2Xvd9uJ1aZQUWujotbGsPGuZHosohONxve49Xmi8S2A9kRo3xvB0xylvSWKry2KtzUaX+1YS91NskNIL1x0uy/M/W97ocGAalGJxTT8gSAfL/8MTdNYv3kb06ZPZfLUyVRVVeW9Xoe00QLpFEF0Td6CngikaaXzXZuvrAEiul2VJaIrCIIgDAREcgUhQSHzNIu5GJWZ6KYfBwMaOzYG2PFVgHee3I3FqtIw1smY6SWMnlrC8PEuSqutON3ZQ37TsdgULDYFXOAut1A3MnsboHR8nhjhoIa3LUqgI0YkpONvjyV7iqMRHS0G3tZo8p46WqNJOU7vo9V18LZF0bVUmjFPRppiTM84zBLU9r2xtNgiuj1FS7x5wWCQFZ+u5JPln1JRWcGkSROZNGUyFRXlptf1lujmomiim97b219F11Cs0r16JmLoOYah95boCoIgCEJ/QSRXENLocviqiST1lugm+0QT+WNRje3rAzSuD/Dh880oClQNja98PGSUk6FjndSPdFBeY6OkwoqzxGLe+O2CkgoLJRUWqobYun9xH/O/12+LzxHuhR7dwUqn8HraPCxf9glLly5nyJA6Jk6cyMTJE3G5XIb8vSG6+eiWQOYyrwNBdM2q3QPRzRkLEV1BEARh4CKSKwxqcq6o3MU8zd4eupyeySgRqSt0HVp2hmjZFWb9p14U4g1dd7mVkvL4ysfjZ5YydkYJIye7sDn6xZ4/vUKxhy4vXPMSz3zS3Ee13z9YLF1/HjqFt2nXbpp27WbRhx8xZuxojohZsWfKWVFFN7/tFiyQJsWa1SHftQe86GZlzFFWkURXEARBEPoDIrnC4KYbw1f7eo5ueqZcopsomIq6eG/usHFO6kfFe3Qrh9ixO1VsDgWbbeAKbifFFN3pww5h+PSB22pfs2Ezn61ZX0BOBVUFTYeGhqFMnjKZ8RPGofzzDSKQLUzFEt0C2BfRzSVn/Ul089FvRVcQBEEQ+gkiuYJwgIgugN2h4i63MHyCmxET3Yya6mbYeBdllbb4nNV99DJdT+2Vq2sQi+nxtKiOpqXm1wa88Xm7EF/YyuuJGeJkVsPbGiMWS92HaTWVvGcTZ5T0A4I+Y7nFEt36sgYOmlKasx4HOm3t3rySq6rxPZ0rqyqYMnUKU6ZMwl1SkjwfTs/cG6KbSQ6BGsii2xU9Ed1cPdkiuoIgCMJAQyRXEKDfiq7dqVJVb2fkJDcTZpcxYqKboWOceReaynmLGoQCMUJ+jVBAI+iP4W2N0rYngq8tllxoyu+NEfRpRMIa/vYYWkTH35FaVSpVctqrjCGmivFEWprSzThKZpYs0e2tVZcHG4oSF9HyinImT57ExEkTqayqzJk/lxj1hujqeU7mE8hsW+u6/p3X9jvRNY3ZE9HN2Ee32KIrCIIgCP0AkVxhULPPe6n2gui6S62MmlzClMPLGTejlPpRTpxuS8H3FAlreJojtDdHad0dZu+OMC07w7TtCccltiNGwKcRDmgYnTJzNWMTQTU0aFMt4YG6vdBARtd0VFVF0zRKS9yUl5UwdcZBTJ4ypfAY9I7oZqOQbx/dniy8lK/+8Zj7WXS7rHAP6pmIYdheqIiiKwiCIAj9BZFcYdDTH0TXYlWYeEg5Bx9bxaRDyqissxfUWxsOajRtCbLzqwA7NgVp2hxk744QoUC8tzYWSW+MKhmN3q7n+u6boIro9mfsDjszp05k5rSJjB4xjJfefJ/KiorCLtYh/hD1PhRdeia6ZnVXchz2J9EtsP5d1TNXjF4R3a5rLwiCIAh9gkiuIFAk0SX7unyiq1oVahsczDmlhsNPq6WixoZqMW+l6zpEw/G9azd/4WPrGh+bPvexe2uQaFSPz3fVzXtiDZrXg0Wt0gXVYgGLJV53h9tCebWVsmorFTU2SirjWw853CoVNTYsNoXSyvivmJIKC1abyb11KSX5M/zuxm20740WXXQHOrMPmsxRc2aiqvuwIJlO4rPRO6Kbu9jBKbpdy2eBkpwWozdEVxAEQRD6AyK5wuCmu72D+UQ3x3WZomW1KYyfWca8c4cwfW4FVru5aEQjOp7mMFvX+Fn/aTsbV/lo3h5M651Jk9g8gmpsoxYmuhabiqvUgqvEQu1wO7UjHdQOs1M1xE5FnY3yaiuussKHUPcaGUM8iyW6A50St6vrTIXQW6Kbs6zOl4NLdBWbC8XqQI+G+r/oCoIgCEI/QCRXEIotuiZpuq5jtalMml3O8QuGMunQciwmvbaxqE7TliBrlnpYu7ydbev8BDrSVxDuWU9sPtFVFJ2yahtVQ+w0jHMyYqKLupEOKmttlNfaerTIVV+hU+B71l3RFQrnABJdPXPiaD8W3XTs446l8pI/4114J5EdK0V0BUEQBKELRHKFQc2+7KXanTm6IyaWcPrVw5l6eAU2R3bPbUtTmM8+aOXThS3s2hxMbY3TKaLJ8ns+5LjztKJARZ2NkZPdjJriZuyMEipqbZRWWs2HFPeASEgj5NcI+jWiIZ1oVCfgjWXlC3o1ohFjA9m0Bkr2WQWIhOLXiuj2LVlK0xuim6u8boiumXp1tZpxfxFdYpHkS8Viwzn9HOzjjiWw/FG87/8WvaPJtI756pkTEV1BEARhgCGSKwx6elN07S6Vky5p4MRLGrJWSNZiOlvW+Hjv2SZWf+whFIglhyIXsr1QoaKrKGBzKIyc4mbKYeVMOqSM2uEObE4FVS1Q6HTQ9PjeueGAxt6dYTzNEVqb4qs4t++N4vNE8Xni2xLFYqBrOlrCa3UddC0VTkn81LT4PrxKWipKejs67ZWScZyW33jH7LPoCl1gao/0uuiax8wtujljHQCi2/H2XVSc+ysUqyOZproqKZn3LZwHnYf3nV8TWP4oxMKFi66eR6qLIrqCIAiC0D8QyRUEii+6igLDxpdw6ffGMnZ6qeGaSFhj9WIP7z3bxIYV7UaxLbBnuCvR7Vz0acLsMg46soKJh5ThKi1sDm0sqhPya/jaozRvD7Nrc5Dd20LsbYxvR+TzRA2t5J4JaqLO/XjVZSE/yc9t+uPt76KrpEZR9HfR9S99hPDmjyif/1Mck09FsTk7bwJL5Ugqzvtf3IddQ8frtxD56gP0WNhUdM3oLdHt1r80CIIgCEIvIpIrCAmKKbrT51Zx+Q/HUVFjT+bTYjobVnbw5t93sHZZSm7zxemu6FYNcTB+Zimzjqtk7IzSgsQ2FNBobQqzZ1uIrWv87NgQoKUpQltTBC2WLg6Da3shoTCyhKkIoptdSEZ405hdi271OT+j7fVfEWlal6h7/xbd6J51tPztGhwTT6DsxB9gH3WEIYNt+CyqrnqK0OoX8b5zF9FdX2B4WHnoDdGVfxsSBEEQ+gsiucKgplh7qWYK6sx5VQbB7WiN8NJD21n2ejOhQGrcbqH76HaWbSa6FpvKhIPLmHNKNRNml1FebcvbG6bFdHZtDrJtrZ+NK33s2BjA0xwh6Ncy7irRR5syUkPJXQqqAq5SldJKG+5yC65SFXephZLK+MrMDpea3FrI6lBxJ1ZrLtgxFfjrz3fia4sVX3SFfWMfRdf0PShAtjJFN9axxxCi5NAFOCcdT8eHf6b9/fvRfC39Q3QVFcfEE3BOOpHo7rUEVj6DHvbFM2tRQmvfILL5I1yHXkbpsd/FUjki9bQsdpwzLsA+/jgCSx/B98Hv0Px7KIRii658dQRBEIT+gkiuMOjpLdHtZNMXXv5y2wb27AgChv7QvPvodiW6JWVWDj+tlsNOraF+lDPvolHhoMbGlV7WLGln3ScdtDdHCAX1RH3Sy+7+olZWu0rtCAd1w+3UjXBQM8xO1VA7lfVWHC4LFpuC1aqgWil8DnCBdK78XPQeXaFb5Ja6nopuroLoluh6lz2BY9RsSo+4HEWN/7mzlNVROf8HlBxyAW2v34Vv+dNpIwSy4+UrK37v+ya61ppxlJ92C85pp6NYnaDFKJn7ddpf+xmhdW8lL9VCXnwf/YnQF/+k5Jhv45779Xj+BKq7hpLjvotzxvl4F95FcOUT8SHMXdArPbqCIAiCsJ8RyRUEem/HYoQAACAASURBVEF0ddA0naWvN/PEbzYR7uy9zeqJ7Z7oqqpC3UgHR55Vx9wzarMWs+pE03R8nhjrlrez6r02Nqz0JlZszqhxgfvoAtjsKnaXypDRDoZPcDNikpMho50MGe1AUZW8vce9h572qniiK11S3af4c3RzFUTBoquHAzQ//u90fPQo1Wf/FMe4I1EsVlBUbPUTqfva/ZQdeQ2tL9xCeNsK0COm5eQrK37v3Rdd1V1F2bHfovToG1EcafP2VQu24bOoue5Zgl+8RPvrtxLdvRZ0DXSIenbR/tJ/4l/6MGWn/RzHpFNQLLbExQqW6rFUXPh73IddTcfrP8uogPlDFtEVBEEQBhoiuYKQoJiiq2nw/nNNPPd/W4iENNOe2O6IrqLAsHEujjm/ntknVOeUW58nyqbPfax4t5U1S9vxt8eXN1aSPwrfR9fuUKmotdEwzsm4maWMmOxi6GgnDnf2FkjdRdPi2wzFojqxxBZCoYCWJZed+ToxPiIlcW2q9sUSXaGI9IMe3dCWZez6w4WUzD6fyvnfx1Y3Iflhco4/iqE3/QPv0idoX3gv0b2bSH4Qe0F0Fbsb14xzKD/5h1hrx+e5SQXn9LOwj5uHf/GD+D56gJinMVlWdPdaWh+9DOf0syk9/nvYhh1M+sJatlFHUH3dC6Aa/8x3S8gT91mw6AqCIAhCP0EkVxDSKJborvqghY2r2pOC1vXc2tyiO3Ski+MvHsrs46tNF5LSNJ1dm4Ise2Mvny/y0LwjlNHgLHwfXXepheETXUyeU87YGSXUDXfgLi9sVeZ0vK1RvJ4ovrb4lkLtrVG8LVG8bVG8bTHCAY1wUCcW0YgkRlQGfbFEnVI92FoMIkGNZIKS7hVpr3phMSqhC3JIaW8MXTZbi6q7oqvHIniXPUlg3TuUz/s6ZfOuw1JSA8TFs+zoa3EfdBrt7/4B78ePoAU8pvfZY9FVVRzjjqLsxO/jnHBMlnwCoEUJfPkq0d1rcc+5EktZPaqrktLjv4dzxvn43rsH/6dPoId98bLQCH7+D8Ib38U1+zJKjv13LBXDU/HMyuiqniK6giAIwgBAJFcY1JjNwSyG6H6xuBVIDA7OcU1XousqtXDSpQ0cdVYdpZU2MtE1WL3Yw4cv7Oarz72EfGkb0VL43FqbQ2X8zFIOmlfB5DlllFXb8s7vTSfgjdG0JcSebSF2bw3R3BiiuTFM0K8RCelEQxqxaLJKOQQ149h4IpGWfGB9uuqyYI6e9XnKOL+vomtWZp6hvxkvc4ouQKx9N62v/BLv8qepPPV7lB66IBnYUtFA1dn/TcmhC2h79XYCX7xK5zDhfRFdS3kDlWf+N64ZZ6PYS0zvL9K0hvZXf0Zo7ZvosTD+pX+h7OT/wD1rAahWrDXjqDj317hmX0rHG78g9NV7yc+9FmjDt+gPBFe/SOkJ38M1+4q0LYdyPc9eEl1BEARB6AeI5AqDmwJlp9j76HZeA9nXqRaYcVQV5980iuohjqzWYzio8dmHrbz9eBM7vwqgaakGfHf20a0f6eSw+TXMOq6Sshpr3kWhYjGdSEhjz/YwW1b7aFwXYPu6AK1NEWKx+PBsQ3vZbB/dggW108NTre202veJ6AqFoCQ+3+Ttfe3JHF3zdyDHPro9EF10jUjTOvY89i90fPwY1WffgmPkrPiXT1GxD59B/bWPElj3Dm3//CnhnV/GZbdboguqq5zSuddSdsJ3UN1VJvekE+vYg/f93+H98H70SCApkdG9m2h98l/wffxnyk+7BceYuaBasY+ZS/V1zxJc/RIdr/2c2N6NQPwfuGJt2/A8fzP+JQ9TdupPsY8/Pm2+Lui6Ziy9yKIrCIIgCP0FkVxB2J+im3Fd3XAnZ31jBLOPq0bJkM6gP8aq91t55+kmGjf6QYf8PcPZousutzLpkHLmnlnD+JmlydWJsx6JDv6OKHt3hFm3rIPNX/jZvj6Avz2tW7bzZ7pIpAc4kPfRlSZ7fpKPJ7/ogokwFSC6uSmi6ALoGsH177PznjMpO+JyKk78Ntba0fGLVAuuKSfhHH80HR8+SMd7fyDa2mj415xcZSk2J67pp1Nx8vexNUw3fy6hDvyfPEX7wruJtW7L+B7piWesEd6ymL0PnIvr4AspO/EHWGsnoFhsuGach3PSSXjf/x3+xQ+ieZuS9xRpXEHLXy7GOfUMSk/8D6y1E9GDbYT+P3vnHdhWdf3xz5Nky/LeM9PZe0BCAiEEEkLCCjvsPcootEDLaMso0NIyShk/oBTKKKvslQBZQEIIWWTvZTve8R7aer8/bEt60pNHIjtxfD4tsd59955z3tV6X507ts4LjiOMQlcQBEEQjhRE5AoCHHahqygw/uRkzr6pDymZZk1bt1tlx5pa5r9eSN7WhlZ9hxK6CSkRjJySwJQ5aWT0tYRcCbm63En+1ga2rKglb2sjFUUOVE/LDXDHtxfqzkJXaANvf3ZzoQuoLju1P/6Hxs1fEz/1JuKOvxqDJaHJW0QU8dNuJXrUmdR+/wINq97DY6/VcwsomPseQ/z0u7EMO7UpMxyIx4Vt11JqFzyOI29lU4ZYL84WoauA6nbSuPY97DsWEzP5emImXYchNg3FHEfcjHuxjLmAhh+ewbr+A1SntcmI24Vt8+fYd39HRNoQPPXluKvzdPtYhK4gCIJwtCEiV+jRHNJeqmESupFmA2dc15up52YQYdauXFxWYGP+64VsWFalXWW4HfvoKiiYLQYmnJbC1PMySM0x696w2q2epq2GltawZ0M9tRXOpvtuxS9b2+KplSHQInR7IB0QuvptQwjdAJJP/z0Vn/0ZZ/ne5pLwC10AV3UxVV88TMO6z0iceTeW4TObthwCTCl9ST7nr8QcO5fqrx7BtvM7jVtTfAbxM+4m5piLvAI5yH75LmoXPkHjxs9RHY3t2kfXv8xdX0btwsexbviYuGl3Yhl7IRiMmNIGkXDuP7GMv5S6BY/g2Puj155qq8VRsKq514L9eIvCIXQFQRAE4QhBRK7Q4zmcQjchLYIr7hvIkGMSNDeSbpfKss9K+fqNQuprXO3eR7fFt8GoMOy4BM68PofMvhb/nUWaqnhUygsdrJh3gHWLq6irduFxN11MoEDV3g+L0BUCaKfQ7fBiVH7Ejjub6CFTqV7yMtVLXsJjraWzhK6qqjgKfqH89auxDJtO4hkPEJk5tClOgxFzn2NIv+F9rJvnUz3/MVxVBcROvIKEmXdjjEvXvXjV3kDt4qepX/6Kb9XmVvvEL84Aods0n3gbVR/cQuOat4if/QgROWOb5uv2P4Hkaz7BuuFj6hf9BXdVfrv6wxfPIQpdQRAEQThCEJErCBwGoYtCzoBornt4MBl9LJrzpflWPnwuj20r/W+GW99H13usNM3rPeP6HEafmBi0mJTT4WHPxnp+/OwAW3+u8a58rHj/af8+ukez0BXaRl8whUfo2gu34LHXYzDHeqsZohNJPuMe4o67mMovHqN+w3xUR2MnCV3A7aRx09dYty0m7sQbiT/pZkyJ2QAoJjPRY84hash03LUlRKQP0u8jRyONm76k5pu/4jqwt/0Csi2hC6jNw54dL56KZfwlxE67E1NKf5QIC9HHXIZ54DQqXpqJu1qEriAIgtDzEJEr9Gw6KlDDJHT7j4jl+j8PITEt0lvmcausX1rFJy/kUVlqB0WTV21T6BqMCseemsKZ1/UiIVW75ZDLqbJrXR3ffVDKzl/q/ebZQnsFak8SukL7OFihCwGCKUDo2vaspPjlq0k58x6i+h+D/1CEiNS+ZFz9MvE7llLx5ePY9q1C9bg7RegqCqguB7VLnqdxwxcknHwbMcfOxRAVB4AhKs77WNvYg33PT9QseBLb7h+aNnymgwKyHUIXwONy0rjqTZxFG0m+7E2MyX0BMCbkENFrXJPIbWd/+OI5OKErCIIgCEcKInKFHk1bw347Q+j2HRbLDY8OISHFJ3BdTpWv39zP4veLcdg8wbZD+G6pE2UxcfZNvZh8RppmxWRVhYLtDSx4u5htq2pxOVpuXA9OoPYYoSu0m4MRukHtvAU+odu4dQm2vauIm3ABybN+iym5l6+uomAZMpXsvuOoX/0xVQufw1m+p9OELoCrIo+Kj+6hfuW7JJ7xRyyDTyJoHgDgqsyndtE/aFj7Aaq9vjlef5vhFbpKhIXo8ZcQe9LtGJP7+JraanGV7ehwfxxUnC025P0jCIIgHCGIyBV6PF0pdLP6RXNjgMB12j28+9QeVn57ANXT1mrJwb4T0yK54v5cBo6N19x8Omwe5v+nkJ++OoCtsSmT1N59dEXoCm3SpmBqQ+jqlQcIXY+tnpqlr9OwYT6JM24lcdoNKCbfe8cQFUf8lCuJGT2rab7u4v8Dt6ODcbZf6KJ6sOevpezflxI94jQSz/gjEWkDm045Gqlb9gq137+Au64MQvhqshkOoatgzj2B+NMfITJnDBh8X+fO/Wuo+eqPOMu2Q6CvThe6giAIgnD4EZErCHSN0E1KN3PDI0NISvdtEdRY5+LNv+xi47KqVofOBvpv8Z2aY+b6RweR3T/ad84DezbV8d6T+ygvsPsCDhLMInRDPWdCOzlEodueocsK4Kop5cBHD1C7/L+kzvkT0SOmo5ha3kcKxvgMUuY8QPzxl1Px6UM0bl6A6rIH2Gwtzg4IXUB12mhY9xnWrYuIPfZCjPHpNKz9CGfZTq2YDeGryebBCV0UA6a0QcTPuAfLmPP8sskq7qoC6hb9jcZf3sU74V7PV2cKXUEQBEE4AhCRK/RwAgRPJwldc5SRub/JJaufT4w21Lp454ndbPixEqDVfXT1ypIzI7nuz1qB63Kq/PhZGfNfL8TaEJC91c0Mi9DVe86EDnCoGd2QNrVCF8BRvIPif19L9IgZJM+6k6h+4zXNItJyybjuNRo3LaDq26ex5631KekwC10Aj72e2h//E1JAtuaryWbHhK4xLo2Y468ndvKNGGKSfXFYq2lc/V/qvn8GT12ZrvgUoSsIgiD0JETkCkIXCN2p52YyeorvptTlVPnkxX2s+77Cl61tw7e/QI1NMHHtw4PIGeATuA67h09eyGfFvHI8Ltplx1tDhK4I3UMhDBnd9m4vpLqcNGyYj3XnjyRMuZLEk3+FKTHL20wxmIgZPRvLoBOoW/ke1Qv+iau6uJ1xdlzoNpWHFpCt+dJtq+NLMUVhGT2HuFPuJCJjqK+Sx4V18zzqFj+Bs3iDV9AfTJwidAVBEISjCRG5Qo/Gd4PWeUI3s6+FM6/to7kRXPR+IcvnlXkFrqZdG0LXGKFw/u396DMkxtvO5fDw/pN7Wb2wwjcEtJ2C2VtDhK5P6AqtottFXSh0UcFjraVq4QvUr/2cpJl3ED/5Uu18XUs8CSfdSMyo2VQvep7a5W+hOm3dS+iiYO5zLAmnP0Bkv8koRt+q6c6SzdTOfxj7ziVNQ7ODRKkIXUEQBKHnErw0pCD0MFTvPZvv5k1F1dzJq9oD7bHXjrZMRUUxwEV35GK2GL3lO9fV8OWrBahuVd9Oa76BSbPTGH+yLyvsdHh454m9rFpQgRrYrpVrCLator0E1fevXx9pq/jVCYOdgNpoL0ENqK5z5pDtqIFVBD3UELuiBr/EAg6UgNdBQHOVgNdOS13fTxSaclXFWZFP2Xt3s/+JmTRu+w7V49I0NyX3JvWCx8m582uih09vEoptxtkkMFuLU788UBW2chh4TtNWwZiYQ/Lcl0i7ZR7mAVO9AtddU0z15/dR9twMrFu/weNy6No72Dhbi1G3bRu+BEEQBOFwICJXEOg8oTt8YiKDxyd4jxtqnLzz5G5cTk/rdkL4Tu8VxeyrcjAYm240PW6VBW8XsWZhRZDv9lxDUJkIXVT0f3wQAugkoQsdFLrNDWwFGyl6/iLK3rgVR9FWUH1bcaEomHuPJutX75F+1ctEZg/Hf/ufI0noGmJSiJv2azJ/u4yYYy9GMTZlp1V7PfXLX6HsuVOoX/p/qI5GbZw69g42ThG6giAIQndHhisLPRwV7fDVgDIOfuiyKcLA9Lk5mCIMXvuLPiiiJK+x2UMbdgJ8KwY4+cIsElJ9QzK3r61l0XvFeDyqxndrdmToctt2hHaiKs2v3cByDmnosr4vQg5d9vryuKlb9SGNW5cQP+VKEqfdiDE+3WfDYCR2/DlYhkylbvmb1Hz3L1y1Ja3E2SQgu2LosmKMIHr0HOJOuYPI7JHeGqrbhX3HImoXP41j388EqVH/OFt+yTmMQ5cFQRAE4UhAMrlCjyYwBxnOjG6fIbEMHB3vLSvfb2XZ56V+i722w46f76SMSCacmuo9Z7d5+Pxf+dht7iDfrdnR8x1UhmR0hXbSiUOX9W22ktFtfuiur6Dqm2fY/48zqVvxnnY7IcAYk0ziqXeQc+d84iZdhmI0tWGzczO6kb3Hk3rN2yRf8iKR2aO81+gs20HF29dw4M0rse9dofveDopTx9fBxhmqP0K2FQRBEIQjBBG5Qo+ns4TuhBmpREb55uKu+KaM2gpHxwVzs+9jTkklKsZnb83CAxRsbwi2gwhdEbpdzBEodFFVnGW7KX37doqeuwDbnpVohjCjYErpS/olz5B9+5dE5U4CxdClQtcQl07SuX8j/ebPsQyb6Z1367FWUzP/UUr/eQrWDZ83LZjVmi8RuoIgCIKgQUSu0LNR/f+ET+hGx5oYckyi99ha72LN4gO+OgchdMdNS/EeezwqP3xSEnANInTDJ3SFVlEJFjxHpNAFPG6su5ZT+MxZlL51G66KfG1Fg5Go3Ilk3/4Z6Vf8HxHpA1EVJYTN8AhdgzmOuCk3knX3j8SdeBMGc2zTKXsDDavfpeSpE6lZ+CQeW337fYnQFQRBEAQvMidX6OGotEzSVPGbuwmHNEc3Md1MZh/fHrb7dzVQmt+obeMzG9JOC7EJEfQa6LNXtLuRor2+hWdabAXMcJU5ul6zHbMjtJPALuukObpqc7nmlErbc3TxvbZUt4u6n9+ncesSEqfdSPwJV2KM9f1wpBgjiJtwEdHDTqHmu5ep/fENPPUHdGwe/BxdxRhB1NDpJJx6F+a+x/qMetzYdi+j9tsnsO35Ee2PLh3YticwzpZfcrpqjm6wSUEQBEE4LEgmVxD8UnqBOciDzej2GxqL0eS75duyqip4ex+tWV07LWTlRmMw+Ozt3liH26UGtQmyA5LRPUg7QuvovDWajztp1eWQ2ct2ZnSbcdeWUfHFYxQ+ew71az4Gj3ZOuzE2leQz7iP79s+InTAXxWDSsdnxjG5E5ghSr3yNtKtex9x3gjduZ/kuKv53O+WvXoJt97ImAwE2OrSacWCcAWVtxXloGV19m4IgCILQ1YjIFXo0GnETRqGb2c+XdVVVyNtaHyQ2OyJ0UzLMmsxJ8Z7GkG2CyhChK0K3c+hqoXvIQ5f9DDkKt1D6xs0UPX8B9oL12gqKgcisYaRd9hyZt36EufcYCBC27RW6huhEks58kMzffEP06LNQIqKa6jit1Hz7d0qfm0X9yrfxOBpbFZHdQ+hKLlcQBEE4MpDhykKPR8XvFjkMQ5cVBc02P6gqZYXW5ofa4cPtHbocHe9bcAqgumUBq1BDjiFoyLMMXe7o0GWhPfg9XV03dJmA4bZqS0H7hi57T7tdNG7/AeuTs4g//nKSZvwaU0of73nFaMIy+ESy7/qWup/+S/XCf+KqLMD3E0nooctKZCwx488lafZ9GBOyfD6dNho3f031lw/iqshrrqzbPUF92l2GLguCIAjC4UZEriAQXqFrUAzExJk0tq31Lt/xQQjdQOxWd+sC1XspInQPRugKHaOrhS7oiLODFLoAqstBzQ+v0rBxPknTbyNu0iUYLAne84oxgvgp1xAz6nRqvnuR2h9fx2OrbbYZIHQNJiyDppA4+16i+k30Bal6sO1dSc2Cp7BtXwKqyy8AbUwidAVBEATh0BCRK/RsgsRO86NDFLpaH1qR22Tn0IRuTLzJV6c1oatTJkK3HUIXoU1CCbMuFLr6MR2c0AUFV1URBz76A3VrPiLptDuJHnGqb04uYEzIIHnOQ8SMm0P1N0/RuGUBqtvpFboRmYNJnPFbYsaejRLpm7LgqiqkZsGTNKz5EI+93usvlIAM3SfNh0eq0BUEQRCEIwQRuUKPpumGN7xCVwVcTr87PgViEiOoKXdofXdU6PoRaTZo23VIoIrQbY/QFUKj+j84jEI3tKg7eKGrqir2fWsofe1aoodNJ/nsB4jMHKypZe4zjvRrXsW6bQmVXz6K88A+kk69g7gTrtWs2Kw6rdT++B9qFz+Pu7ZYJ34RuoIgCILQGYjIFXo84Ra6qkflh8+K2Lul1uvD41R1BWt7he6uDbV8+lKet17+joaAaxChG16hK7RFKEF7tAhdnHYaNsyjccsiEqbdROIpt2CMT/M2UExmokfOwjJkGh5rDcb4DJ97twPrtsVUfv4QzpIdtKi/jgrI0H0Som2bfdLysBOFriAIgiAcAYjIFQTCL3Q3rahk04pKAK2wVA5O6O7bVkfetnpfI4VgO20JVB3/InT1ha7QPo4koQsB4iwMQldRQHXZqV74LPVrPyHptDuJPeY8DFFxvpoRURibV0xG9WDfv4Hqb56kcdN8UD1BcYrQFQRBEITOR7YQEno4qvZR0BYzzY9U/zK/M6pebdX/kNb2v/XZ0ZZ1dB/ddvkOUSbbCwXbEdog+OUQ9OtAqPJO20dX75Ta1C60zcDXlj+K5iXhqiyg/P27KX5xLo3blgTtr+uqKqTi0wcpfuE8GjbMA48HPQ5m257W4tdt25ovzbUrQWWtttXzFep5EwRBEITDiGRyBcE/00d4M7qhsqEHm9Ftl502fAdnYoN9H5ydoyujK7SBqjQ/If79h/8TGbK80xaj0itXCUtGFwCPG9vuFZT86wpixpxO4rRfYYxPp2HDPGoWPY+ruhDfTy2htxc6mjO6giAIgnAkICJX6NHoC9QeIHQJbidC10/oCu3jCBS6nTl02dvM0Uj96g9p+OVzMBjA5UAzNNlfQPYkoSsIgiAIRwgyXFno8egPOdac0J5R/cv8zujaUTU3fzJ0OYTnI23ostB+/Iav6rwFWi3vzKHL+jZ9P2iE9KVrUwn+7UMF1eVAddpQVU8rNpWQcR51Q5cFQRAE4QhBRK4g0EOFrq5AFaErQvcgOAKFbmhRF0ah2644RegKgiAIQlcjIlfo4bQlUDUnROj2EKErtI6KTm+J0G3DpghdQRAEQegqZE6u0KNRDKB6VFqfW9sD5ugGza0N9n1wdrrnHF1Ze6p1VKXp91HtcwRH6hzdzthHt/U5rqFsHt1zdOWNE17qbJXUNB5gxY4v/Upb72Pdp0AJPGzFhtIuL94/7XAXUKC0bl/xPWg1BkX3YXCFdl0POtcS2kFbcY3rO4s4cwox5sS2vAqC0ImIyBV6NKdd0o/5b+9rh0DtAUKX4HY9UeiaLQrHzpKbk9awnHID9h/eJOBl2MQRKnQhQACI0A270GXirTqFQkcpqd7HtxvfYsmm97xl2v5uQ2QGPDl6z5US0FhrPkCI6grFEDF4i1uLQf+HRCXAaaD/oDOB8Ss6dVqJXzeGwDh1/DfVCyGJFfh++1uAwqQB5zFl4FxS4/oEGxAEodMRkSv0aBJTzUB7BepRLnRDtOtpQjc+JQKhdZQIC0p0ImpjdbcRuqAjzkTohk/oGiMhOjk48KMIh9PJfz/8itHDBzNiSC6WqKiw2i+s2sWC9W/x866vsTrrtW8LTX/rfYb51w34vtB5noM/w/1fPwGfvT53ms9i3Rh0P/+D49d+jvs11fscD3qt633/ad+n+t9JrX2XhIgTRff9H/ydHPh5prJi98esz/uG0X1mMHnghWTGD0AQhK5D5uQKPZrJp2U2fSnR8sd3I9gj5+iGKOtJc3RHnxSP0DqG5BxMucc2HQS/DJsLtDeAepVClXfrVZfbFWeTgAwVZ7eco2tJhtyTdX0cNaiwJ7+Qz75ewl+f+w9vfvAFefuL8bg9bbdtgx+2fcyjH13Gd1s+wOqoa3Gnda/3BKv6L6Og7wu95y/oMzy4QeB7NPCzWDcG3c//4Pj1Y9I6Df3Zoff9F3is953UjhgC49Tx31RPtzc0D6yuBlbu+YyXl9zM6rwvEQSh6xCRK/RoElLNjJuaJkK3TYHac4TusbMSENomasrlvoNuJHRlMap2+uqo0B1/la7toxEV8Hg87NxbwE+r17P859V89fk8du/cjcft7pAtt8fNf757iNcW/4nGZnHb5ETvcy9YgLX8EaGr1zbUd1I7Ygij0FUBm7OOj1f/hU/W/g23p2OvEUEQDg4Zriz0aAwGhdHHp/LLD2V0bMjxUT50udlWT1uMqvcQCzEJRoS2MfUeiSExC091cVOBryuP+KHLshhV8N36oQ5dNgyaGUqvH7W0CBxVVSkoKCA/Lw9TRAT9c/szcNBA+vTrg6GVxbhcbgdv//g4323+n8+mZuiv3ude4HOl/QyTocvB79MjYehy0w9aKiv3fIrBYOSMUbdjMkYiCELnIZlcocczaWYWWX1joOUGjpY/vls2yeiG9n1wdo7MjO7UC1MwRcjHYnswJOcQOekibWHwy7C5QDK6rdvs5hndgdNRs8frB9pD8Hg8qIDT6WT3rt3M+3Ieb7z6Ost+WEZxUbFum3nrXmPRxnd1Pqv9kIyuf4R6jkN8/wUe630ntSOGwDh1/DfV0+0N3fhX7PqIpTvfCTYiCEJYkUyu0OOJTYjg/FsG8cpDG7Fb3UhGt2dmdMdMS2DIsXEI7cdy8nW4tn6PK2+dr9D7XEtGt/1xNgnIbpnRjcuCUx4ARWHrlq0sWfRdcKAhWLNhS7vrdifczUOWrVYbG9ZvZMP6jSQmJjJp8nHkDswFYE/pBuavfd3bJvizWjK63qZ6n+NBr/Xuk9FVgKU73mVQxkR6JQ1HEITOQVH1ioHshQAAIABJREFU0jKC0AP5/LU9fPDCjuYj3ze04vcv+H/Z+ZVpT2jPdMiO9u4kcBsEvZ0Dg7cy0Dhsv502fAeV6fg+ODuBNxV+PeXXR9oqgb15aHbSe5v59fO5RJh7bhb3y4VLyemfS0ZWVofaqfWVVNw9IlgYBb8MmwvUwCpBlUKVoyd0A+rpvARokmZ6wfjq6ehVWtIw+jYDX1v+6AjddsXZJMtDxRlq5GuQWA3Vn3rndIRuSF+BcQJc/hHKwOkA1NbWUl5arh+kHzablYI9exkzfBBmc/cZsulyufnwq4XtqmswGPB4PERHRzN02BAGDRlESkoKAKrq4dZXp1Bnqwp6DQV/Vvuh+7kX+Fz53ni6T6FsLxTiO6kdMQTGqeO/qZ5ubwTFH2NO5A9nfoWitP97Z9PateSkJTFiiKzULAht8DfJ5ApCM2de1Z8d66tYv6ycjmdiOfozugS3OxoyupY4E3N/n9OjBe6hoMQmE3fti9S9eTuK2+k70Y0yut7EpKItk4xu6PhRjCgn3A4DTvaejo+PJz6+7dXJ6+vqqK+sYOig/sREW9qsf6TgcDjhq9DnDQYDqseDKSKS/rn9GDpsCDm9ewU9lV/98hp1tiqg7WyjZHT9mh5lGd0GezU/7HiHk4ZcjiAI4Ufu6gShGYNR4Y4nxjHupPTmEtUn7vz+BXrmHN0Q7brzHF1LnJHrH+9LzqDuc6N9JGKeeA5xVz6DEhnQj8Evw+YCJbBKUKVQ5Z25vVDQS1ltahfaZuBry5+jeI6uoqBMuQNmPAgdyEIdjSjNcsloMNI/tz+zzzyd6268hhkzp9NLR+ACfLf5Q81x4GtI5uj2nDm6q/Z+HtxYEISwIJlcQfAjItLALY+M5r9Pb2PFN8UyRzewTaDtEL7bcw2HO6ObMziaObdkkzNQBG44ME88DzxuGuf/E0/Zbt8J73PdDTK6ejSLupab0h6f0Y3LRBl3GUz/Y3AAPQWl6TNIMShkpaWSkJjAlJOnYTK1fUu1vWgNFfXFQR0b+BrqCRndoNoB8feEjG61tZR9B9bRL3UsgiCEFxG5ghBAVIyJ6/80kjEnpPHZv3eRt71OhG6bArX7CF2z2cDxc1KYflk6kVE9OwsVbsyTLiRi5HQa3r8Px2q/DEU3ErqyGFUrQrf/VJTT/oySNSbYcQ/BoCj0653N2JFDGT44l937Cigsr2qXwAXYsn8FTpcd0H5PQM8Tuvox9Syh63Lb2VW2WkSuIHQCInIFIQQTTslg9PGprPuhnE9e2UXh3gZAhK7/BXUnoWs0weSzUjn1inQssbIXbmdhiE0m9toX8ZxxN9Z5T+FY8xWqxyVCt5sKXcVghL6TMZx8L/SeAD14b09ThInf33o1sTHRB21jy/6fvY8Dvyd8ZfQgodv0WuvJc3R3l69hBtcjCEJ4EZErCK1gjjJy3MxMjpuZycqFJdRUOPj6nTxA9z42SCg2lSs69ZWW//uOtdW1ZS2PNX+CLAb51J7X3uEE2QgR/0G30wYU9DBohc3AeuitcBm4omXgasmB3hQGjY8jKzeK0VMTiE2Uj7yuQFEMGDMHEXvtS7hmb8e1fTnObd/jLtrmqxPUSNWe03srhSjHe6Os1yDEofcuMzStrTDcmi/9ONU2berH2NRWr5l+I/8Y1JD12uorYlIwjJmLkjEM+p3Qmvceg0FRDkngltXup6hyj6ZMhG5Lcc9djKq8dh+VDUUkx2QjCEL4kDs+QWgnE2dkAnDq3D6HORJB6D6YsoZgyhpC1LRrDncognBYqbdWUd14ANCKSBG6LcU9U+jW26potNeIyBWEMCMT0gRBEARBELqQwJV7VZ1C1ftPy7F2CLqmtqy67B+hnmPfmcD4W+ljvfg7ZdVlQRDCjohcQRAEQRCELkaErgjdEFUEQQgDInIFQRAEQRC6hNZFpAhdP/shYzj6hK4gCOFHRK4gCIIgCEJXoKN6ROiK0BUEIfyIyBUEQRCEo5Dammqe+uujbNm04XCHIvgjQrftGELoPxG6giC0F1ldWRDCSElpKX948CHvsaIoZGRkkNuvHyccP5mhgwcflN3tO3eSmZFBQnz8Icdos9n49Isv2bJ1K2UHDpCSlMSgQYOYcfI0euXkdIpPoefw6J/uo7a2xnscn5hIn779GTZ8JBMmTT4om8WF+zGaTKRnZIY9vrS0DAYNHcbpZ80h0mw+ZPtHEgV5eSz4+itS0tIYPnL04Q5HoEnn+Fb/9R41nVNl1eWeuo+uIAjhRzK5ghBGbDYbq9asJSM9g2OPOYaxY8bgdrv59IsvufiKq3j8yaewOxwdtnvxFVexaMl3hxxfYVERZ5x3Pq+/9V8iIyMZPmQIERERfDlvHm+/936n+BR6Fls2bcTt8TB63DGMHjue2Ng41q5eyZ/uuZM/3H0HZaUlHbb57FN/541XXg57fCPHjMPldvHqyy9w41WXUllZERYfRwojRo/h3/99jyuuvu5whyL4oc0sHh0ZXYBIo5mYyDjiLUkkxaSRGptJZkIvMuNzyIzvRa+kXEZkjycnoR+Z8b3IaP4vJTaD5JhU4qISiI6IxWSMRKM4A69RJ/5un9ENLhIE4RCRTK4gdAJnzp7F8ZMneY89Hg/v/u8DnvjHM1gsFu649ZbDEtejj/+d9NQ03vj3v4iMjNSck1+ThXAxctQYLg8QVmtWreSpv/yZx//8IE89/5ImO9TVBMa3d/cu7rj5el569h/c/9Cjhy2uzqBX776HOwRBh+6Y0TUZTcRFJZJgSSLBkkxGQjYZ8dkkxaSTFJ1KfFQiMeY4LBHRREVGE2mMJCoius2+aHDU4/a4qLfV4HDbqbfX0miv40B9CeV1JZTVFXGgoYQ6azXV1gqsjgbd+Lt7RlcQhPAiIlcQugCDwcBlF88lLz+f19/6L+eefTZ9eveivr6eeV9/w8bNW6iorCQrM4MLzz/PO6y5urqau+69D7fbzUOPPsZX8+czbuxYbvvVTW221WPT5s2cMXtWkMAFvKKjNZ+/rF/Pex98yB/v+T0fffoZv6xfz8wZ0zlj1iyvnS/nz+enn1fisDuYdNwEzpszx2u7PTH/sn49X3w1j6uvuIKv5s9n6/btpKWmctnFF5Pbvx9Lvv+B5St+prSslDGjRnHFpZfoXo9wZHHMhInccsddPPrg/Sz6Zj4zZp2O2+1mxfJlrF31M2WlJcQnJDL5hKlMOWmat93fH3mIX9asAqC8vBRLdDQP//XJdrVtL/0HDOTU2Wfw/aIFANisVh649y7uffARVv+8gjUrV5CZlc01N97sbbNj+1a+X7SQ/QV5ZPfqzYzTZjNgYPB7b+/uXSz69mvy9u0hITGJSZOnMGXayd7zm9av44fvFlFWWsLAwUM5b+4lRFt8wqC0pJh5n39Kft5eoqIs5A4cxNSTZ5CRmdnm+ZbruOr6mxgxagw2q5UH7/8d9/zpYX5YvIitmzdiMBg4YerJuv22fu0aln6/hOrKCkaOGcfI0WN46z+v8PBfn+xwHwvBHMlCVzEYSIlJo2/KIPqkDGBQxghyEvsSb0kiLiqBGHNcWPoAICYyFoD4qMSQddweFw32OmptVRyoL6Ggcg95lbvYX7Wb4pp86mzViNAVBMEfGa4sCF3INVdegdvtZv2GpoVgnnvxJd778CPMUWYG5Pbnl/UbuPiKq9i0ZQsAZrOZU6dPB2Do4MGcOn06Y0aNaldbPfr27cOCxYvZs3dfyDqt+ayurmH+N99y462/5sNPPiEmOobYmFhv23v/9AD/ePZ50lJTychI58l//JP7H3jIe749MVdX1/DhJ59yyVVXs7+wkIG5uaxcvYa5V1zJZddcywsvv4zZHElqSgovvvJv7rzn3g48A8LhZMq0k8nMymbDurUA/LRsKS88/QR2u51+/QdQXVnBow/cx8fvv+ttc8wk34iIE6dNZ9IJJ7a7bUfIzs7BZrPhdrvxeNxsWPcLf7j7N/z7xedBgZhY3+v866++4M5bb6KsrIS+/XJZv2YNd/zqepYuWayx+f2ihdzxq+vYX5DHgIGDqa2pZvHCr73nv/rsE+7/3W9wuVzkDhzM4gVfc9v1V2O32QDYX5DHzddeyfp1a+nbL5eExERWrfgJm62xXedbrqO2ptZ7vH7tGi4990zWrv6ZrOwc6uvqePSB+/jy0480sX/8/rvcd9ftVFdVkJXTi8ULv+W2G65m5U/LD6p/hSZC7pF6BAxdTrAkcfzA6dw+4yGev+xD/u+KT3nonP/jxpPu4eShZzI4cxSZCb3CKnDbi9FgIt6SRK+kXMb2Pp6zxlzObSc/xJ/PfoVnL/6Ev577JldNvpOJ/adhiYgNat+dhi4LghAeJJMrCF1IVmYmFouF3Xv3AnDn7b/G7LfYzR233sIFl17G2+++z18feRiLxcLFF17A3556mosvupDz5pztrdtWWz3+eO893PabOznv4ks4dvw4Zk6fzuzTZhIX57tpac1nCxMnHMtvf32bpuz7pctYsGgxn3/4P3KyswE46cQTue5XN3P5pRczYtiwDsX82ssvMmTQIKDpx4FZc86lrKycb774DIOh6fe5kSNG8NCjj5FfsJ8+vXu10vPCkULvvn3Jy9sHwOQTpnD8iVO9zyfAM0/8lY/+9y7nzb0EgOmnzmLh/HkkJ6dw1rnne+u1p21H2LtrJ/3652I0Gn1lu3cxb8mPGh+VFQd4+fl/cOMtt3P2eRcAcNV1N/Lgfb/jxWefZsKkyURZLNTV1fL8P57gqutv4vy5lwb5q6ys4JUXn+O3v7+fk2fMBOC8Cy/m6kvO54vPPuaCuZeyeMG3xMTE8I8X/qU7vLut86GYc/6F3Hz7nd7jxx76Ax9/8B5nntPUv2WlJfzn3y9x4613cM4FF3nrnTljKi6ns91+BH2CFnPi8GR0I42RpMSmc8LAGUweeArDssZiMka0/zpQcbmdON1OXG4HDreDGmslDfa65iHH9TQ66pucq1BtrcDldhJpjCTekuztA6PBSIIlBaPBSFJ0KtGRMcRFJWA0RBBhjMBkjMBk0I8r0hRFpCmKBEsyQzLHMIercHmcbCtexy8FP7Jy33eU1xXhdDuO7IyuIAhhR0SuIHQx8XFxeNxuAI3gAzCZTBwzbhzbduxo087BtB06eDDffPEZCxYv5v0PPuKxvz/BU88+x1mnz+am668jLTW1Xddw/dVXBZXN++YbJh830StwASYcM56U5GQ2b97CiGHDOhRzTlaW93FcXBzDhg4hPjZOIziOm3AsAAX7C0TkdhPi4xKoqaoGwGgK/goaN34CX3/5OQ67vdXVjg+lrT+1tTUs/vYbFi/8locf1w7Dveu+P2pebwArlv+Iohg5Y865mliuuO4G7rjpOnbt2M7IMWP5adlS7A4755x/EXqs+HEZBhROOmWGtyw2Lo5jJhzHjq1NIxtiYmKoOFDON/O+ZNopM4iyWDQ22jofirHjJ2iOxx0zkR+//w6Px4PBYGDVT8uJNEVoflQAuOaGX/HOm6+3y4fQOodT6KbGpDO+3wlMH34WI7LHE2lq+71id9motVZR2VBOYdU+CqvzKK4uoKK+lGprJdWNFdTba4LaKWgn+Go0X3P8SsBJhSbhGxeVSFJ0GgnRySTHpJOV0IveSQPIbh42HR+ViNEQ/DlgMkQwMmcCI3MmcMnE29hW8gvLdn3D2rylVDaUNXdoQC8dZqErCEL4EZErCF2I3eGgrLycQQMHesvyC/azbPlytm3fTn19AwuXLGn3VkMH09ZoNDLr1FOZdeqplJSW8uX8r3n5lX+zfsNGPnjnv+3yq5c1ysvPZ8vWbVx+rXbBofqGBurq6w8pZgBLVBQe1aMpi4qKAsDt9ug1EY5AiooK6Zeb6z2ura1h1c8/sWXjBupqa1m5omk4rMvlbFOoHmzb999+kw/fextVVfF4PGRkZnL/Q48x4TjtFkexscHbZ+0vyCMjM1OT8QXIzR2IoigUFRUycsxY9ufnkZaeoSvGAQoL8mm0NnLnbTdpykuLishtHsFw1jnns2/PHl545kleeOZJjpt0POdcMJeRY8a263x7ibJE4fH43kP7CwtIz8oKukYhvHS10O2VksvsURcwdcgs0uOzNNvyBGJ1NJBfuZtdZVvZUbKRPQe2U9VQTlXDAc3ncOB3Qbi2F3J73FQ3VlDdWIG/+lWACGMkSTFppMVlMjBtBEMyR9M/ZQgZCb0xKNofpUwGEyOzJzAi+1gO1JXw4+5vWLj1Y0pq8o8ooSvjlgUh/IjIFYQuZNXq1aiqyrChQwD4/Muv+MsTT3D2GWcwaeJEkpKSsNntlJWXtWnrUNq2kJmRwfVXX0WU2czfn/4H+QUF9Ond+6CuzWw206d3b35z261B51pshiNmoftSW1PN3j27OOXU0wDYvWsHf7j7NwwfOYoJk44nPT2T7Owc3nv7zTZtHUrboSNGcu2NN2M0GMnMziYlNa3d12A2R1FTUx1U7nQ6UFWVpORkoGlF9Ua/H3cCaRHh1954C4E3uAmJid46d933R2645TaWfreE7xcv4O7bb+b2u+7h9LPPafP8wRIVZaG2JjgrJxwaejKmK4RuZkIv5k68npOGzCLekqQfm6pSVJ3HuvwVrM1bzq6yLdRYK7E5rQSKzFbjV8MndIN6pTkj7XQ7KKstpKy2kM1FazBsMBBrjiczoQ/jeh/Psf2mkps6DKPB9yONgkJaXBbnjL2ak4eczYItH/LFhrdocNRxZAhdQRDCjYhcQegibDYbT/3zOc4+8wwGDhgAwKtvvMklF12k2VLovQ8+YMfOXUHtnU7t/rodadsWCfFNGSv/RaT0fLbG4IGDmL/nGwYPHER8vP7CJOGMWeh+/PvF50lNTWfWGWcBMO/zT8nMzuGBR//mrWO1WnXbOlza12JH2gYyZux4Ro8d39HwAejXP5fKAwfYvm0LQ4YO95avWbkSo9HIgAFNWdhevftQVVXJvr276dd/QJCd3NyW0Rxqm7HEJyRyxpxzOWPOudzzm1v5YckijYht6/zBXGPFgfKga6xvRbQL7UNXBHaS0I0wRXDu+Cu5dNKviI0KHpXgdDsortnPws2fsnLvDxRU7sHtdnkXVurI9kJdLXT9Q/PgodZWTZ2thp2lG/lo7atkJvTmxIGncdLgM0mLy9YI3gRLMucfcwMnDJzFmz89zZr8pXhUtwhdQTjKkNWVBaGTKSktZeHiJZx/yWWoqoe7f3OH95zFEsXK1avZvWcPHo+HDRs3seT7HzAHbImTnZXFgkWLaWy0eocVtretPw89+hj/++hjtu/cSXVNDQcqKvh24SKefvY5Tpl2EsnJvl/59Xy2xjVXXoHT6eLu++6nqLgEgLq6OlauWt3h6xWOHmpra9iw7hfuu/N2li/7gTvvvZ+I5uc7KsrC/vw81v+yFrfLRUlxEX956A9BNjIyM1m3ejXlZaXe12J724abKVOnkdO7D39/9GF2bN2M2+1m84b1vPT8M5x17vkkN89rP/GU6SQmJfH0Xx+juKgQAGujlS2bmlZWP37qSeQOGMTTjz/G5o3rUVUVp8PBlk0baKivA5q2F1r1809YG5vEe0H+Pvbt3UtWdk67zh/KNWbl9PJdo8vFlk0bePfN/3hjEw4e/ZV3A9fn9X8QcC6gvapTmBaXyQNnP8uN034XJHCrGyv4ZtPH3PvBddz4nzN57+d/sad8O0630ytwg02q3j+hMtKtxdjUVNtYa17Vlqk6dULF4C1ueuD2uCis2st7q17i9vfO5emF97CuYDkOl93bREEhK6EPvzvtaS6b+GvMJoufhSDHvjOB8as6dVqJv+1VlwVBCBeSyRWETuCW3/wWRVG8c/6Sk5O46LzzuOHaa4iI8K0S+fvf/pY7772Xc+degsFgIDMjnUkTJ1JdrR0O+dtf38b9Dz7ESTNPIy42loXzvmx32xZsNhsxMTH869XXKCsv95abIyM575w53HGrdpixns/WyM7K5OXnn+Xhx/7KrLPnkBAfT21dHVmZGXzw9n+Ji4vrcMxC9+R/77ylmfNqibYwcfIJvPLWeyQlJXvrXXjJ5axbs5p7fnMrBoMBc5SZE08+he8XLdTYu/CSy1m98meumnsekWYzT7/wcrvbhhujycQjjz/F448+xO2/uh6DwYCiKMy54CKuvcG3j25MdAwPPfZ3/v6Xh7nmkguIjYujsaGB444/gQcf+ztGo5E//+1Jnnv6Ce667VdEW6JxuJxERpp56C9/Z/TYcezcsZ3/vvYKDY0NRJrNOOx2Ro4Zy9U3NM3jbev8oVzjnx9/gr889CfvNaakpjFh0mS2bNp0SLaFJjozo5uZ0IsH5/yTwZkjNfbr7XV8u+kTPv/lbYqq87VLHnVwH90jMaPbVOyXUQWcbic/7V7Aqr3fMTJnAmeMupSxvSd7F6wyKAbOHnMVCZYU/r3sL9hc1sOS0RUEIfwoauDPb4IgHDR2u52Nmzd7j00mE/369CExMfQm93aHg71792KxWOjdqxdWm428vHyGDxuqqVdbW0dB4X565/TyDgdub1t/VFWlorKSktJSYqKjyc7ODplJDfRZXVPDrt27GT92bNCqs/4cqKiguLiEpKREcrKzNTc+bcUcyseu3btRFIUBfosWuVwu1m3YwKCBA71DroWDY97iH8ns3YfMnEPLAm7dvBFn8zYziqKQnpFFekZGyC1uPB4PhfvzcTgc9O7dl0izmU3r1zF81GjN8+9wOMjft5eExETS0jM61DYwvqTkFDKzsnXPt9jdtGEd/XIHEB+fELJeZcUBqior6N23P5Eh3kOqqlJWWkJNVSWpGZkkJ6cE1WlobKCwIJ+oKAvZ2TmY/H4IczmdlJYUU1dbS0pamvfa23M+8DpCXVd1VRX5eXt1h02XlpTgdjnJ7tWbt157hWXff8fLb7wdsk/aQ11NNVvWrWf2KScQZe7eozg2b99NYXkVI8e3Pfx9d+lG/vCOdsVqvbdF0GJOmgetL/QUFRHFg+c8y3G507xlKipr9y3nP8ueYUfJJm3WNVCsBq54rOsn9Bxd3fj1rjGgcasxKDp1QsWgoLugVksMEcZIxvY+nosn3Ez/VN/3pEd188Hqf/Hh2n81Z2SVIP+a2APKA58aRefiAuP375c7Zr5O7+ThtMWmtWvJSUtixJDgKRCCIGj4m4hcQRAEgYVLVxKfkkqvfv0OdyjCEcqD991NlMXCfQ88ckh2qg5UsGPzJs4+7SSMrfxY1h3oqMi9/53zgkRYOIXurFHn87vZf/G2d7gdvPXj83y8+g3sbpufPa0I60lCFyDGHM9Fx97E7JEXY2rO6jbY6/jTZ9eQX7XLa6irhK6IXEEIO3/r3t8ugiAIQliIj43G2tBwuMMQjhB27djOju1bcbvdOB0Ovv7yc1b/vIK5l115yLatDfVER1u6vcA9KNSAuZuEb46ugsLs0ed7Babb4+Yf3/yJd1a8jM1la3X+aKvzY3XjPLLn6KrN/wsVQ4O9lteXP8Vn6173xhpjjmNi/1M0Tg/HHF1BEMKDzMkVBEEQSE5MYNuuvKB5dULPZNOG9bz68gu4XS4A4hMS+NMjj5PbvHr0oVBbU01KYg+eXqCCqmjnjoZljq4BhmSO8pZtLlzLws2fa9u3Mn9UO8f16Jyj6x+Dqnr4aO2rnDrsfO/WSgPShmMwGPF43F6nXTFHVxCE8CMiVxAEQSAzPYWN23ZRW11NQpL+XppCz+GcCy7itNPPoqiwaa5wVk6vVufhtxeHw0FddQ2D+7Y9NPOophOELipEmsxBfgIPRej6YlAURRNfhDESBSWgnzpf6AqCEH564FghQRAEIZDYmGhSkhIobd7uRhAs0RYGDBpCTu8+YRG4AOXFxZhMJrLSU8Nir1sT5qHLKlBr9a1UPzJnPCcNnR1ktK1htUfb0GWvfZ0Yzht3LbFm3yJsLo9vn2BtP3X20GVBEMKNiFxBEAQBgMED+lJ1oIJa2dJJ6AScDgfF+wsY0K8XRmPPvP0IEjbhFLoqlNTs99YxGIzce+bfueKE24gzxwe378FCN9Ycz1WT7+KcsVdrMrkVDaW4PW5tUxG6gtAt6ZnfMoIgCEIQmWkpZKalkLdzV9BNqSAcKvl79mCOiGBQ/96HO5TDQyhhEyahq6JSUlOkqWMymLhqyq954uLXmTZkNpYICwHN/I6PfqEbY45j6uDTeXjOK8wZe6V3v9wWSv1+JNA0FaErCN0OmZMrCIIgeBk1bCCLlq2iKD+fnL59D3c4wlFCdUUFB0pLOW7cSIxG4+EO5/ARYp4rKmGZo1taGzzdQEFhUMYI/nD2U2wr3sBX6//Hit3fUd1Y2dLsqJ6ja1AUeiXlMjl3OscPnEnf5IEoin6Op6yuKERMnTtHVxCE8CMiVxAEQfASGxPN2BGDWbtxG2aLhdT09MMdktDNaWxsYNe2bfTtlUV2ZtrhDufw04lCt6gqP6Rbg2JkePY4hmaN4UBdCSv3LmXZjgWsy1+By+086oRuWlw24/ocz4mDZjEgbTgx5riQfdMSV3FNfpN3VelaoSvpXEEIOyJyBUEQBA19e2VRW9fAnh3biYyMJD4x8XCHJHRT7FYr2zdsJCkhjrEjhxzucA47Po3UOUK3pFo73HbV3mUkx6TSP20QBqUpg25QDKTHZ3PmmLmcPvpC6m21rC9Yydp9P7K56BdKagpxuOy4PS6/mI5coWtQFCKNZizmGAZnjGRUzkRG9ZpIn6QBGI0mTV+24HI72Vi0kpSYDPokDwSg3l5Dg73O570rha4gCGFHRK4gCIIQxMihA7DZ7WzfuJF+gwaRlpl5uEMSuhl1NTXs2LyZ2OgoJo0biUH2XwY6V+gWB8wprWo4wAMf38bJw2Zz5ti5DMoYToQx0nveoBiItyRy4uCZnDh4JgDldSXkV+xmb/kO8ip2kV+xh6rGA9Tba2l01DftIXuYhK5XELi0AAAgAElEQVTBYCQmMo5YczzJsWkMzhhN/9TB9E0ZRO/kXM216WF1NrKt+Bc+XfcGm4pW89SF73nP1ViraHTUa72L0BWEbouIXEEQBCEIRVGYMHYEW3bsYfv27VgbGujVrx+GnjyfUmgXqqpSVlRM/p7dZKalcOyYYT17Hq4OnSV0a63V1NvriG0empuZkIPN2cj8DR+xZOs8RvQax4zhZzGm90QyE3J056amxWWSFpfJMf1O8AZTZ6ulsqGcmsYqDtSXUFiVR3ldCRUN5TTYa6mz1WB1NGJ3WWm016Pi0V5pO4WuyRBJdGQ00eY4YsxxxJrjSIpOJSM+h6zE3mQl9CEhOpnk6LQ2hx+34FE97K/awy/5y1m662v2lm/F7XETF5VIrN+q03W2aqyOxiCh3hVCV0YrC0L4EZErCIIghGT44FziYmNYv2UHleXl9MrNlXm6QkjqaqrJ27Uba0MDgwf0ZejAfhoR0+MJFDsQVqHrcNmprC/3itzsxD7eejanlTV7l/NL3k8kWJIZmDGM43JPYnzfSfRJGYjREOqHCIW4qATiohIgJfByVBwuO3anDafbgcvjxOGy43I7qWqs8Pqts9V4L64lfEUxkBydikExEGkyE29JwmgwEmGMJNJkJtJoJtIU1UpcoXG5newu38rGwpWszVtGXsVO6luGIjeL7URLMlER0d42FfWluDzO5j7tWqErCEL4EZErCIIgtErv7AzSU5PZsmMPe7Ztozgvn9SsTJJTUzFHRR3u8ITDjMvppLqykvKSEmqrq8lIS+b48SOIjYluu3FPpBOFrt1l50B9KX1ScgGwREaTEJ1ETWOVt67Ho1LdWMHqvctYvXcZZpOZpJhUhmePY1j2GEbkjKN3cn/MEVEYFVOrP1IoKJhNUZhNwZ8D/TvSJweJqnpwedzYnI3sPbCdXWWb2Va8jm0l62lw1OF0OwJ0pC+rnBCdTJTJt6VS06JT/rZF6ApCd0ZEriAIgtAm5sgIxo0cQm7fHPbk7Wd/Xh75u3cTGRlJVLQFkyki+M5bOIpRcbtc2G12bFYrBoOBjLRkRk0cS3pK0uEO7oglcEVgbdmhC12n28GBulJvmckYQUZcNjWNlRqr/u3tLjslNYWU1hSyZNtXAESazPRLHUjv5Fz6pg6kX8pAshP7EBsVT1SEhagIS5vzX8OJ0+3A5rRiczZSa6umqCqP/MpdFFTtJe/ADkpqCnB5XN6L8l6pzqrLLYUpsZmYjBHeM0U1+UFzZLtM6AqCEHZE5AqCIAjtJiEulnEjhzJmxBAqq2qoqqmjodGK0+lElZu1HoRCRFQ00alJJMTHkpqShEnm3baLzha6/tsIRRgjSI/PZEfJpqC0YWD7JsHVVOhw2dlRspkdJZubWihN8/TjzAkkRqeQFJ1CfHQiyTFppMSmkRCdQkxkLInRyUQYI4mKsAAKlkgLRkPrt5pWRyMe1Y3T7cDuslFvq6XeXktVYwWV9aVUNVZQY62gxlpFZUMZDfb6pn7wi11v1WX/PtYTuhlxOd4Sj+qmor60+WzXC11BEMKPiFxBEAShwxgUhdTkRFKTZXshQWgfLRuiBoswzcNDFLolNYXexwbFSEZCjp+D9gtdbVmTQKu1VVNrq6agco+vUcCCUkaDicgIc/NQZrN36yJtnL5GDpcNj8eDy+PE6XY01w0YZNzGqsuhthdqTehmJfjmK1sdjdRYK/3qdq3QFQQh/IjIFQRBEARB6DI6V+gWVmnnlmYm9ArwdfBC139FYMUvaP+Vk90eF1aHGwCro0ETS5DQbf4TqPXCuY+untA1KAbS4rK8tmzORmqsVRpDInQFoXsTvHa8IAiCIAiCEH5U7QM1qNy/TA085a0QuOmM/1SBGmsVDS0rCQO9kvrp+Ard3ldF1SnzP9YGrakdInatSVW/rbdu6zF6Y9DrO70YfO6IjowjweKbO97gqKPaWqkTWmsxqCFi0jrVe441Z2S8siB0CiJyBUEQBEEQOpmWwcqdLXRrrdW+rCSQFp/l3YZHhG7TH0tkDHFRvqkWpbVFqB4P+qF1gdAVBCHsiMgVBEEQBEHoIjpb6Nbb6qi31XrLYs2xxFsS/ZvpBeLvKiDWo0/oRkfGakRuSU1BiPh1AtKJX4SuIBx5iMgVBEEQBEHoQjpT6Dpcdg7UlXmPo83aobnBvjpf6MZExjJl0EzOHnspE3NPItJkPqxCNy3Wl90GKKsrCh2DTh8Hx3BoQlcQhPAjC08JgiAIgiB0BSrBe6T6rUwUcKht0oHFqIqqC7yPY8yxJEanoKo7tYs5aXxprYZvMSqFCf1P5K5Zj5EUnYqiKKiqyv6qvTz6xW/Zd2CHZjGnltWh/Bey8sUUvsWospP6ett4VA9ltftbj6G5j4FOW4xKEITwIplcQRAEQRCEriIw29gJGd39lfu8jw2KgYyE7ObmOhnZ4ED8XQXE2rGMbt/Ugfxu9uMkx6R5BaqiKPROzuX2GQ8SYYw4LBnddL89ct0eF+X1JW3H4C1uLQbJ6ArCkYKIXEEQBEEQhC5Ab0XdzhC6JTWFeFSP91R2om9P2K4UuicNnk1idHJgpAAMyhjB8OzxOn46V+gaFQPp8b7tg9weN2W1RYFXrh+DCF1B6DaIyBUEQRAEQegiukLoVtSXYXfavMXZib211bpI6PZJyfWWOVx2lu1c4D2ONJk5/9irSYxO0fHTeULXZIggOTrNW97oqKfWWq2p02oMnSF0BUEIOyJyBUEQBEEQupDOFroH6kqxOa3eovT4bCKMkdpqXSB0qxoOeI8jTWYmDThZ02Zi7km8dNVnXDf1LlLjMlA0t6WdI3QjTGbS4nyZXP+VlQMuIXQMInQF4YhHRK4gCIIgCEIX05lCt6qhEquz0XucGJNMVER0cAydLHSX7VyI3eXLKJsM2vVOFRSSolO4aML1/OuqL7jllD+SmzoUo7de+IWuJSLamz0GKK0tDOrjrha6giCEHxG5giAIgiAIXUCwUOwcoev2uCip3u89TopOwRIZrS+4OlHobti/ko/XvIHL49LUcXmcuDxOTVmMOY6zxl7CUxe/zT2zn2B0r4nN2efwCt3MBO3Q7eLmTO7hFbqCIIQb2UJIEARBEAShiwjenqd5UxmVsG4vtL9yH+P7TQYgLiqBuKgESmuK9LfeCdyeR+PL36pe/KG3F3J73Lzx43Ns3L+aqYNPIyU2gz3l21m64xssEdHMHn0hUwadSqTJ7G1riYxm6pBZHDdgGluL1vH1xg9YsWcJNqetSWQe4vZCGfE5mvKSmv3B/df8IODKvYWB2ws1FasHv72QIAhhR0SuIAiCIAhCF9IVQre4ptBrX1EUcpL6sKt0q67/prLOEbout5OVe35g1Z6lGA0m3C1ZXQU2Fa7mvZ9f5uxxlzF92NlYIn1Dqs2mKMb2mcSoXhMors7nqw3vs2DLp9Tb65r7q434QwjdwEzuoIzhLN05H5fbediEriAI4UeGKwuCIAiCIHQJPknT2UOXCyvzNEN5sxJ7af118dBlFVU7RFkFl8fNvgM7eXbBQ1zz6mm8t/JfTdv5+G1/ZDQY6ZXcn5um3cvr133Lr6bdy4C0YZiMEW3Hr3ONmQnafjhrzOU8edE7HJd7CpHNi3N19dBlQRDCj4hcQRAEQRCEzkZHnXam0C2qLgjaK7d1AdZS1nlCt+mhNuiWo8qGcl774Wl+/fZcXvrucfaUb9PEDxBrjueccVfwj4vf4cGzX2DKoJnERSW2Hn9AjFkBmVyAAWnDuP+MZ/j9rCfpkzzAF7ffAxG6gtC9kOHKgiAIgiAIXYBv+KpvEGzIocv+7ej40OXi6v3NGVEjABkJ2RgVI27V3cqQ2payzhm67IvT7xoDhv5WNZTzydq3WLD5U47pewKzR1/IqF4TiPDL3EaazBzbbwrj+05mf9U+lu38lmU7v2XfgR2oqtrq0GU9kQtgUAwcl3sygzNH8Z9lT/Hdjq+a7Ph1QEeGLgfVbsfQZUEQwoeIXEEQBEEQhC6i3UI3YIWljgrdmsZK6my1JMU0bZeTmdCraU6sy42qtDZ3tKXs8AldVJV6ex3f7/iaFXuWMCB9GKePvohThp6pGaZsUIz0SR7ApcfdzDnjrmBb8QYWbvmUFbsXY3U2BgndeEsCMeZ4b9nusq3YnI2MyDnGW5YUncqvpz9MTlJ/3l35Im6P66CErv4CWSJ0BaGrEJErCIIgCILQhXRI6IJWwHZA6O6v3OcVuenxWc37z9qbRdiRL3RRFOwuO1uL1rGtaD2vLX2aWSPPZ/rwOWQn9vbbTxeiI2MZ3/d4xvWdTIOtjp92L+b7HV+xvWQjjY56VFUlPS5HIzw3Fq7k1aVPMWXQTK4+4bekx2ejoBBhjOTCY69HUeCdn/8Pt8d9kEK3aVxyW4tRyfBlQQg/InIFQRAEQRC6mA4NXQ4UsO0UukXVBYzq3ZSljDHHkhSTjNXR4K3QXYSu2nyyquEA7/78Mp+sfZPx/Y5n1sjzGZF9DLFRvuysgkJsVDynjjiHU0ecQ1ltEWvylrF89yLS47I1sRTXFOBR3fywYz7bitdx3Ym/5/iBMzAoBgyKgfPGX8PWonWszlsa1McdGbrc1qrLgTN+BUE4dETkCoIgCIIgdAFaYdT5Qnd/ZZ7Gf1ZiH4qqCjQBdSeh21Jmc1pZvnMRK3YvoW/KQCYNOJkpg2YyIG2YJk6A9PhsZo+6iNNGXoDV0aC51pKa/d7HZXXFPP3tfTTY6zht5PkAmAwRnD32clbvW6oVtmEXuoIghBsRuYIgCIIgCF1EVwrd/ZX7NL5zkvqweu+P/9/efcdXVd9/HH/fm0F2QnYghLAUQfZGQVAQLIqLOkDc1jqxrqq11lats+5Va6v+3KhVHAwRtYogS5SlAmEnZEF2IPP8/gjc5CY34Sbc3Jt883r2Uck995xzP/fcm5aX5w7n94q209CVpOrqau3I3awduZv18do31Tu+n07pN12jek5QVEiM0/x2m12hncKdll01/o8akjJWm/au1c7cLcorzdVHa1/TCX0mK+zQe3f7dx0mm63m/rfu9+gC8CQiFwAAwBtchlHrhe7e/NozlZKUHJ1adwynudpr6B7eZWl5sdbtWan16asVHBiqQd1GaVyfUzU8dZzCgsJlt/mpvuTOPZTcuYfOHHyRKqurZFnVstlsTh9uFWAPbHBjng5dAJ5H5AIAAHhFbfl4I3Qz8nap2qpyBF5SZNdGY9GE0K35uVqlZcVavnWJlqctUWinMA1NGauRPSdowrHTnL6K6DCbza4AP3uD5ZK0Pn2Vc4i2QugC8DzXv9EAAADwGKvuT1b9ZYcuWy7WrreS5WJjy+my5fjngYoD2l+c61jv8JncwzttcBLRqrP/Rm6/Zlm9dVwP0sj8DRfW38yqd+ec1m5kdudd1h6jkrJiLd3yuf79zWMqKSt0rFFaXqKcokxVW9Vypaq6UhvSV+ul/z0oq/5RqT+Dy8ezdqHr0TiFC7QmzuQCAAB4QZ1ztJ45o1t/3/VOL1ZUVSircK9iwxMkSYmRXWWz2WVZ1caf0a1/NjUsKMLpZcjL05bo1e+eUFRIjLpEdVfnkBhFhURLNpv2FWVpe+6v2pG7WQcrDjifNW9shhac0QXQeohcAAAAb3CKHQ+E7hG+R7eyqkJZBRnq33WwJCnAP1BxEUnKKkg/tErHCd34iC4KCghxrLd7/zblFmVpX3G20rJ/dix39UFQtjo37MnQPfw9ugA8j5crAwAAeIvTy1db96XL1VaVMgvSHdf52f2VGJHkvEkHeelyUmSK/O2153YyC3a7nt/Vfax3w55+6TIAzyNyAQAAvMmLoVv3a4T8bH5KiOzqvF6dnZocuol17ndldYVyijIbn5/QBdo9IhcAAMDbvBS6GXm7HMtsNpu6dO7mOtYMD92kyG6On0vLilVwIK/p+b0ZugA8jsgFAADwBS+Ebk5hlsoryxzLunZOcble3Z2aFrp+dn/FhSc5lpWWl6joYMGR5yd0gXaLyAUAAPACl18b08qhW1xWrIID+Y7L3aJ7NIgwpx8NDN3QwHCFB0U4LhcdLFDBgTyXkUnoAmYgcgEAALzBRSjWLm94wROhW1JWpPySfY7ro8PiFOjfqUOFbnhQlMKDohyX9xbsrlmhkcj0dugC8DwiFwAAwFu8HLql5SXaXydygwNDFB0a47wHw0M3PDhSoZ3CHVfvzd+tugfY56ELwOOIXAAAAG/yYuha1dahqKsRHBCsqNBox7YdIXQTIrrKbqv9K29WYXrtRq62bWx+QhdoN4hcAAAAL7DqXfBW6O7et8OxLDgwVPHhiU7bmh66iZHJjkWV1ZXKqvPdwW0jdAF4GpELAADQ2iy5iDDvhG7dM7mSlBTVrUF1mRy6XaJSHBfLK8uUVZjR4Ht0XW7b2PyELtDmEbkAAACtzXboTx+EbnZhpsoqDjoud+mcUi8UzQ1dP7u/YsLiHVdVVpVrX3G2i9shdAGTELkAAADe5OXQ3V+Sq5LyYsflpKjk2rUND91O/kGKCY1zLC44kKfSOseiLYQuAM8jcgEAAFpdw2rzVujmlezTgfJSx/KYsHgFBQTXrm1w6AYGBCkmLMGxKCN/VxPHrs7OCF2gXSNyAQAAvKBBxHopdA+Ul2pfcY5jWVRIZ4XV+Uodk0M3vFOEIoLrfEfuofcnt6nQBeBxRC4AAEBrc3STb0I3ff9Ox+XIw5FbP8IMDN2EiK5O6+3N393o7IQuYA4iFwAAwIt8EbrpebscP4cEhqpzWEyDjU0M3bqfrCxJGQW7m5yd0AXMQOQCAAB4QyMvqT18XWuG7p79u5yiLDEquXb/BodufGQXp+sz8nfVWbmNhC6VC3gckQsAAOAFjb2ktu4KrRW6WQUZqqquclzXLTrVeQYDQ9cmm7pF93Qsr7aqlVWQ7tbZVK+GLgCPI3IBAAC8xFehm1mQrqrqSsfypKhk2Q59ea+xoSubEiJqz+TuK8pSRWW5i2NM6AKmIXIBAAC8yBehm124VxVV5Y5l8RFJ8vcLaHyGBnO2v9C1yaakyGTH5b0Fe5yCntAFzEXkAgAAeIXl/JMXQ7eiskLZhZmOy3ERiQrwC6y3q0PbG3JGNzw4UsGBoY7LmYXpqrach24LoQvA84hcAACAVmbpcPD4LnQz8nY7fo4LT1CAX6CLUGy4cXsN3a6dU52u25u/SzUTELqA6YhcAAAAL/Fl6Gbk10ZuUECwOofG1JnJxQztPHTrvlRZqnlfcu06hC5gMiIXAADA67wfuun7dzmt3j229pOHTQzdpKhuTsuyCtIbP86+DF0AHkfkAgAAeFH977B1/NTKobsjd6vTquP7TnaewaDQtdvsGpg83HG5oqpCmYUZTR9nH4UuAM8jcgEAALzMF6G7fvdaFR4ocFwzdeBZOmfERfKz+7mYq5EZGszZ9kI3wC9QF59wvQaljHQs35bziwpL81xuRugC5iFyAQAAvKBBQHo5dIsPFun9lf/nWN/P7q/bpt2nx2e9ouE9xqqTf5DrOQ/vrI2f0Q0JDNWIHuP06PmvaPbY6+Rn95ckVVVX6bMf39WBitJG5id0AdP4+3oAAACAjsKyJJvN1WVLUs0VliRb7UVZsmRT3Y0ky6baJZZk2eqt02A9S5YlvbnsZQ3uPkJDU0dLqnlZ7+je4zWsx2it27VGn6ydqzXblyunKEvOmXxo/05z1Z2z5od6F+X046E7W+eqRuevf5xqllmy1VloSerk30k9447VyF7jdUKfSeqTcJxsNrvTNt/8ulCLN37cYKdNHucGx9j17M67PHRt/W0bm9/FfQTgGUQuAACAF/kydAtL83XP+zfplmn36qS+p8p+KAgD/AI1rMcYDU0drZyiTG1KX6dV25ZqY/qP2p69RWWVB9tM6MaGx+uYxOM1OGWUhnQfpW4xPRUcEOLyWH/9ywI9+fm9Kqs8KEmytcHQBeB5RC4AAIBX1IlYH4ZuVsFe3T33Rp026Cz97uSbFR+R4LgRm82m+IgkxUckacJxU3Sw4oCKDxYpLfsXbc36VTtytmhb9mal5+1S0cHCQy/ztQ7dgdr5Wxq6stXMYJNNNptdseEJSonpoZSYnuqbNEC9Eo5TQkQXhQSGOr2XuL6iAwX6z9KnNP+nuaqoKne+iTYWugA8j8gFAADwgnr55zJ0Jclma/3QLa8s07wf3tUXGz/TtMHn6qxhFyo1rpcC/AKdNgsKCFZQQLBiw+M1qtd4p+sKD+QrsyBd2YWZyi3KUm5RtorLCrW/OFclZcUqKSuSJJWWFau4vMixXVxYgux2P9lsNnUOjVEn/yDFhsUpMiRanUNjFBeRqPjwRCVFdVOgfye3j29ldaWyCtL1+YYPNe+Ht1RwIN9xnc35kBG6gOGIXAAAAC85UujWLmv90JVlU0lZseaueE0fr3lXg7oP14TjpmpEz7GHAtM5eOuLCI5SRHCUjkns38yj4DkHKkq1N3+3Nqav1bItX+qnXSt1oLzk0J1s/KXPhC5gNiIXAADAG2qb54ih67SBWjd0ZZMOVh7UyrSlWpm2VBHBUUqN7aWBKcN0fPIQpcb1VnJ092adVW0NlmUppyhTGfm7tWtfmjal/6gtWZuUWbBHJWXFjvVqXybtnKBtNXRV5wO+AHgGkQsAAOAtboauN9+je/jC4V0XHsjXut1rtG73GvnZ7QrpFKawoAh17ZyilJge6haTqqSoZMWGxSshsoviwmtefuwp1Va1cooylZmfrr35u5Wet1Pbc7Zo5740FZTmqbS82Ol9tpIafOpyewpdAJ5H5AIAAHhTOwjdw6qqq1V8sFDFBwuVmZ+uNduXS5Ls9sMfDlXzAVGRwZ0VHRqj8OBIxUUkyt/ur+iwWNkP3SGbzU/RoTE6UF6q0vKSmp3bpJKDRSotL1Z+yX4VlxVpX0mO8kr2qbq6UpZl6fB/6s/vztcLEbpAx0XkAgAAeFszQlfy3nt0XYWuq9iurrZqZrIkqUr7irO1vzjn0LC12zq/NdYmFxfrLbPVv6pmhhZ+jy6hC3RM9iOvAgAAgKNiHX7/pfOy2j9qr2v8u1Mt55+sutc03LfV4LKLHVv19uo0U53VrDrrNDKn5WJj5znr3dP669XZaYNJXczv6jjVP8bOt9X09paLhU0e5wbH2PXszrusPUaNPswAjhqRCwAA4CUtDV2Xkel8kdB1LGtfoUvsAp5H5AIAAHjR0YSuVa+4CN32H7oAPI/IBQAA8DJeukzoUrhA6yFyAQAAfICXLhO6hC7QOohcAAAAL3CVM4QuoQvA84hcAACA1mar+V5ZQtfVnB05dG0Nv9oJwFEjcgEAAFrZMV0GakD30ZI8f0aXD6Nqv6F7TNIwpcb1bzgsgKNC5AIAAHhBbHhCo6EotTx0a5cRuq5nqrusbYVu59D4hkMCOGpELgAAgBdMHHiWmgpF6ehCt/5e23To1p+4g4buqN6/aTgggKNG5AIAAHjBkJ7jlNg5Ra0Vuu3qPbou49F5W9NDNzYiWf2TxzQcDsBRI3IBAAC8oFNAkAb3OKE24QjdhgHbgUL3uC4jFeAf1HAwAEeNyAUAAPCSC8ZdpwD/QEK37gwdMHT9/QI1bciVDQcC4BFELgAAgJd0jempWePnSKqTcIRuhwvd6cOuVkJU94bDAPAIIhcAAMCLZp40R+P7T5NE6DrN0EFCd0SvU3XGsKsbDgHAY4hcAAAAL7Lb7LrutPvUI76vpNYPXb5eqO2EbnJ0H1104l2y2fgrONCa+A0DAADwspiIRD148ZvqldBfUuuGbu0yQtf1THWXtV7opsT21a1nvKQovhsXaHVELgAAgA/ERiTp/ote08jeEyW1fujW3yuh673QHZQyTjdPe0GdwxIa3iAAjyNyAQAAfCQusovun/26rpl6r+Kjurb6S5fr77VNh67z7ttl6MaEd9GsE+/QH05/UdFhiQ1vCECr8Pf1AAAAAB2Z3WbXuWN/p9OGz9SiH97V6189rqIDeZJlk2w10WSrt41lWbLZ6iw9tFLNH7VbWJbktJrjcp11JNnq3IglSzY57/vQKHUu11unwXpWo/O7nKH+nLJksw4tcMxVd85699Sqt16dnTY4fi7mr3/7Ncucj7HzbTnvtf72oUFROnvkdRrf7xwFB4QKgHcRuQAAAG1ASGCYzh59hc4efYXmrXhVecXZ+nL9RzVX2hqGrq3OP+v+aKu/QA0DrtH92ZyX2BqsUH8f9RfW3bet/mLny7Z617iYSbI1nN1pZzZXF10ua7AbW8Pp3VnHsV79A2aTxhxzuqJC4jR54EwXWwHwFiIXAACgjTlz1KWSpEtPud23gwBAO8R7cgEAAAAAxiByAQAAAADGIHIBAAAAAMYgcgEAAAAAxiByAQAAAADG4NOVAQAADLdi2VJ98O5bjst2u5/iExI0aMgwTZw8RXa7b8571J/Lz89fXZKT1S0lVeNPPkXR0THN3ufBAweUkbFHKSmp8g8I8OS4ANoJzuQCAAAYbl9urtb9uFb9Bw7WwCHD1Pe4fsrPz9NjD96nO2++QdXV1W1irt7HHKv9+3L1zhuv6sqLLtBn8z5s9j7Ttm7WtZdfrJzsrFaYGEB7wJlcAACADmLm7EsVEBjouPzlF4v0yH336n9ffqGJk05tM3OVlJboxaee0DOPP6LEpC4aNnKUz2YD0P4QuQAAAB3UxFNO1bOPPaK0LZsdkZuVuVdLFi3Qzh3bdfDgAXVP7amzz7tAnTtHS5Le/r9XtGXzL7rn/ocd+6koL9cD9/5JvXofo9mXX+VYnpW5V/948D7dcMvt6paS6vZcoSGh+sMf79LWLb/qmccf0Stvvy+bzXbE2dauWaW7b/uDJOm2OdepS9eumn7OeTrxpAlH3BaAOXi5MgAAQAdlWZYqqyqVkJjkWHbvXbfrp7VrFB0bq7j4RC2a/6muv/JSlR4olSTFJSZp2bffKKc0rVIAAB4OSURBVH33Lsc2P65do++/W6r3331L5eXljuWrvl+m7Wlp6pqc0uzZ7Ha7Zpw/U5l7MxwvPT7SbPHxCTpxwkRJ0rgJEzVuwinqktzVrW0BmIMzuQAAAB2QZVl667X/KMA/QKNPONGx/KkXXlZgp06OyzMumKkrLjpf3yz5QlNPn67RY06Qn5+f1qxaqa7dauL1+2VLNWrsiVr1/TL9uGa1Ro4ZK0lateJ7jRoztsUfbJXcvbskadfOHYpPSDzibF27pWj62TP0vyVfaPrZM5TUNdnt+wXAHEQuAABAB3HbTdcpMCBA635cK0kKDAzUPQ88rLj4BMc6dUNQkhKTuigpqasy0vdIksLCwzVoyFCtWbVC08+ZIUla8d1SzbntDh0oLdXypd9o5Jixqqyo0E9r1+jWO+9p8bwR4RGSpOqqardma8rRbAugfSFyAQAAOojhI0crMDBQPXv30Ufvz9XJk6do+MjRDdb7eeN6/bB6lTLS96ikuEh7du9URUXty5BPGD9RL7/4jKoqK7Vje5pKi4s1eMgwZWZk6M3X/q0bbrldG9b/pKqqKg0b0fIPjcrIyJAkpfbs6fZsTTmabQG0H0QuAABAB3H+zNmOTzHu1ClI77/7lmZcOEvJ3bo71nnq0Yf0/XffatqZZ2vsuJMUFhqmXzdtctrPmHHj9dyTj+nnjRv049o1GjFmrAICA3XCSRP0wtOP65dNG7T6++UaPGSYgkOCWzzvj2tWKTKqs+NMszuzNeZotgXQvhC5AAAAHdB5F12sRfM/0UvPPa2/PfQPSVJe3n4t+HSeHnj0Saev7cnL26+N69Y5LkdHx6hvv+O1ZvVKrV6xXDPOn+VY3n/AIC379hutXln7cuaW2LN7p+Z9MFc33HK7bDab27MdVl5Z4bROc7YF0L7x6coAAAAdUGhIqC6+/HdauXyZ1qxaKUnqFBgou92upf/7Svtzc1VRXq5vvloiSTq2Xz+n7U8Yf5IWzf9EO7Zv04jRtS95HjfhZH383/e0c8c2jR57opqjqqpKu3ft0Efvz9WNV12uMSeO1+Sp05o12+FPil6ycIGqq6tVXV3drPsFoP3jTC4AAEAHNfX06Zr3wXt66Zkn9fwrryskNExXX3+TXn7xWS34dJ7sdruO6z9A3VJS5e/v/NfGseNO0r+ef0aDhw5XSGiYY/mJ4yfo+af+oS7JyYqOjXVrjjOnTJTNZlN1dc0HTCV1Tdac2+7USadMcqzj7myxcfH67YUXae5br+vTDz/QkOEj9Of7H3L7fgFo/2yWZVm+HgIAAKC9+XnLdu3KzNGAYcN9PcoR7d+Xqz27d2nAoCGy2WxO12VlZiorM0O9j+2rkOAQSVJxUZHS03crJiZWsXHxysnOUmVFhdNX8kjSxvU/KSY2TolJXZyW/7Jxg8IjIhxfMXSkuQ4LCg5WSkqqgoIbfx+vu7PlZGepID9fKak9FHjofcjubtsWrVu9Wt2T4nRcnx6+HgVo6x4mcgEAAFogbece/bx1p4aOGePrUdAB/LB8uY7r3V29urf9IAd87GHekwsAANAC4aEhqigvV0VFxZFXBo5CRUWFKsrLFR4a4utRgHaByAUAAGiBzpERstlsKsrL9/UoMFxhXr5sNps6R0b4ehSgXSByAQAAWiAgwF8xnSO1PzfH16PAcHm52YruHKmAAD4kC3AHkQsAANBC3ZOTlJebq/KyMl+PAkOVl5UpL3efUpOTfD0K0G4QuQAAAC2UnBSvoOAg7d62zdejwFC7t21TUHCQkpPifT0K0G4QuQAAAC1kt9s1sG9v5WZnq6iA9+bCs4oLC5Sbna2BfXvLbuev7YC7+G0BAAA4CkkJsYqPjdb2LVtVVVXp63FgiKqqSm3bvEXxsdFKSoj19ThAu0LkAgAAHKVhA/tKVZXasmmTLMvy9Tho5yzLUtrPP8uqrNDQAX19PQ7Q7hC5AAAARymoUyeNHjpAxQWF2rFlM6GLFrMsSzu2bFZhfoHGDBuo4KBOvh4JaHeIXAAAAA+IigzXyMH9tC87W1s2bFBVVZWvR0I7U1VVpS0bNmhfdrZGDu6nqMhwX48EtEs2i3/VCAAA4DF5+YX6/of18vMPVM/jjlVIaJivR0I7UFpSrG0//6qqynKNHjpAnaMifD0S0F49TOQCAAB4WOmBg1r14yblFRQqLilJ3Xqkyt8/wNdjoQ2qrKzQ7u07lLN3rzpHRmjE4H4KCQ7y9VhAe0bkAgAAtJZd6Zna+GuaKqqqFBOfoJi4OIVHRspms/l6NPiQZVkqKijQvpwc7cvOUoCfn/of20spXRN9PRpgAiIXAACgNVVWVmnHngzt2L1XRcUlsvv5KSQkRAEBAbL5+fl6PHiRVVWliooKlZaWqLqqWuFhoUrtlqTU5C7y9+e5AHgIkQsAAOAtJaUHlLs/X4XFJSovr1BVVbWvR4IX+fnZFRgYoIiwUMVGRyk0JNjXIwEmetjf1xMAAAB0FKEhwYQNALQyvkIIAAAAAGAMIhcAAAAAYAwiFwAAAABgDCIXAAAAAGAMIhcAAAAAYAwiFwAAAABgDCIXAAAAAGAMIhcAAAAAYAwiFwAAAABgDCIXAAAAAGAMIhcAAAAAYAwiFwAAAABgDCIXAAAAAGAMIhcAAAAAYAwiFwAAAABgDCIXAAAAAGAMIhcAAAAAYAwiFwAAAABgDCIXANxQWnpAO3ft8vUYDm1tHnhXR3z873/oYQ0cMcqtdTvi8QEA1CJyAXRI77z3vgaOGKXVP/zQ4LqcnFyddubZmjBlqnbs3ClJuuq663TGub/VuvUbvD2qS56a5/BxqPvfE06epNmXX6m/3He/1m/Y6KGJPStt+3b9+a/36ZwLZmrU+AkaP3mKzps1W48/9bTStm/39Xitrq08HzOzsjR41BgNHDFK77z3vk9nqautHB8AgG8QuQBQR35BgX533fUqLi7WS88+q9Tu3SVJx/bpo8SEBMXERPt4whqenue8Gefqljk36uY5N+qcM6crPDxci5d8qdlXXKkHHn5UZWVlLdrvlq1pOm/WbC35+muPzClJi5d8qXMvmKmVq1drxLChuvLSS3TOmdOVmtpdH8+fr61paa16+21BW3k+fvLZfNntdoWFhWn+wkU+naUuV8fHm88FU593ANBe+Pt6AABoK0pKS3XNDXOUlZ2tl55/Vsf06e247p677vThZA15ep6pkydp+NChTstycnL1twcf0rvvv6/g4CDdfOMNzd7vwYMH9cvmzSooKPTInCWlpbrrL/dqyKBBeum5ZxQQEOB0vWVZsiyr1W6/rWgrz8ePP5uvE8eOUUJ8guZ+8IEy9maqS1Kir8dyeXy8+Vww9XkHAO0FZ3IBQFJZWZlu+MMtStu+Xc89+YSO79fP1yP5XFxcrJ567BEd06e3Xn/rbf26ZYuvR9L6DRtUVlam06ac2iBwJclms8lu5//avOGn9eu1c9cu/WbqFE2ZfIosy9LCzz/39VgAAHAmFwAqKyt18x/v0PoNG/Tsk49ryOBBDda5/6GHNfeD/2rdqhVOy9Iz9uqKSy/WW+/M1boNG1RZVamhgwfrljk3qmuXLk77KCgs1NPPPa/VP6xVTk6OevXsqUtmz9KkiROd1jt48KDeePsdzV/0uTL2Zshus6trly6adeEFOuuM0xudx53tmstut+vmG2/U72+4UYsWf6Fj+/SRZVlaumy55n36qX75dbOysrMVGxOj4UOH6vprrlZCfLwk6dkX/6mX/v0fSdK99z+ge+9/QJK0+rtvFRAQ4NY+6gsODpZUE1jnnXtOk7M3dfuBgYG6/6GH9evmLXrsob/rmRde1PIVKxTgH6CP5r6joKAgSe49Zu4eD6n2OXPZ7Iv09tz3tG7jBlnVlkYMH6Zb5tyosNAw/fPf/9bKVau1fecOpXRL0WWzL9JpU051um+eeD4WFRXpqedf0KrVa7Q3M1M9Urvrqssv04v/ellTJk3SVZdf1uTx/fjTzxQaEqKJ48crICBAsTExWrDoc11+ycUN1nXnWFdUVOjlV17Vt8uWK23bNkWEh2vokMGac911TmeH12/YqNfefFM/rVuvisoKl/ev/vE50nPB3cf6sKZm/e+8eU3e1hW/v0a5+/Zr3nvvOu3zs4ULdeef/6L//PMFx6sqPPUcBYCOhsgF0KFVV1Xrrnvu1fIVK/Xko49o1IgRzdr+u+XLtX7jBp00bpwumnmh9uzZow8//kQbNm7Sh3PfUWhIiKSal/5eeMmlCgwM1JmnT1NYWJi+XbZMN99+h+649RbNPP88xz5vvfMuLV+xUpNPOVlnTz9DRUVF2rI1TXabrclZWrrdkQwdPEg2m03bt++QVHO29IlnnlViQoJOmThBoSEh2rZjh+YvWqS1P/2k9996Q0FBQZoyaZJKS0v1xtvvaPTIkTrnrOmSJH9/f7f3UV+/vn3VPSVFn3w2X7IsnT9jhgYc3182F/exqds/7Kf163X51dcoMiJCkyZOlL+/v+N23X3Mmntfvlu+XBs2btSE8eM1e+ZMpaVt0yfz5+ur/32jyIgIdUlK0gljx2jC+HH6ZP4C/fHuP8vPz0+nTjrliI+Vu8/Hffv3a+Yllym/oEDTp01TYkK81m3YoJtvv8Nx7JpSXl6uhYu/0MkTJ6hTp06SpEknT9Q7772vbdt3qGeP1AbbNHWsDx48qEt/d7XS0rbp9N/8RlMnT1J+fr6WrVihgADnv6pcO+cmnTh2rGZdeEGj96++Iz0XmvP7eaRZ3XneNYcnnqMA0OFYANABvT33PWvA8JHWhZdcZg0YPtJ66d//aXL9+x58yBowfKTLZRl79zot//DjT6wBw0daH3w0z7Hstrv+ZE2ccppVVFTktO5td/7JGnHieKusrMyyLMvKzs6xBgwfaT374j+bNY+729V3+DisWrOmyfUm/eZ0a/qM8xyXq6urG6zz33kfWwOGj7S++Oorx7J16zc0OBbN3Ud96Rl7rVvvuMsaPGqMNWD4SGvytDOsp5573srMymqwblO3f/gYPv38Cy5vx93HrDn35fBt7s3MdFr35VdetQYMH2ld/4dbnJYXFBRaJ548yZp56WUuZ3e1zJ3n41/uu98aOuYEa/OWrU7rvvbGm279PixcvNgaMHyk9d2y5Y5lq3/4odHn4JGO9TMvvGgNHjXG2rjp50Zv8/A+0rZtP+L9c3V8mnouNOexdmfWpm7r8qt/7/S7dNinCxY0+F305HMUADqQh3jjEoAObdrUKQoLDdUHH81TTm5ui/aRlOj8QTsTxo+TJG3fsUNSzcuhv/jyK5025VSFhYU5rTv11Mk6ePCg0rbVfO1NQGCAbDabln3/vTKzstyeoaXbNYefn5/jZ1dnTkeNGC5J2rnTve8nbek+uiQl6tEHH9DCjz/SlZddKrvdppdfeVVTp5+l2++6W8XFxW7d/mHX//7qBsua85i15L4kJiQ4XT78nBkyaKDT8oiIcA0eNFDbd+x0894c+flYXV2tzxYs1OmnTVWf3r2c1p166mS3bmPeJ58pOrqzRo8a6Vg2ZNAgxcXGasGixj9l2dWxlqR33ntPk08+Wf2O63vE265/lrj+/Wuu5j7WzZnVUzzxHAWAjoSXKwPo0I49po+eePRhXXPjTbr2xpv0yr/+qbDQ0KPaZ0R4uKSal3RK0q7de1RZWanX33pbr7/1tsttyitq1o2KjNQN115T877IM85U32OP0eSTT9bZZ05XTHTjXxfT0u3cUVZWpuycHB17TB/HMsuytHjJl1q6bJnWb9ykwqJC5eTU/EuCqqoqt/Z7tPtIiI/Xjddeoxuu+b1+XLdOL/7rZS1cvFhl5WV66rFH3b5/rgK1OY+ZJ+5L+KHnjKt1w8PCVVFe3mC5u+o/H/dmZqqsvFzH9OnT1GaNyt23T0uXLZMkvT33PafrDv+Log2bNrn88DZXxzp33z4VFhY1CG531b9/zdWcx/poZ20pTzxHAaAjIXIBdHijRozQ3+65W3/6y19106236YWnn3L5yb0tFRoa4ridP9xwvct1evXs4fj5yksv0W/POVufzl+gJV99ref++ZJe+NfLmnPdtbp41sxGb6el2x3Jj+vWybIsjR5Ze9bu9rvu1lfffKPzZ5yrOdddq8TEBBUXF+vyq69xe7+e2IdUEwBDBg3SC08/pbPOu0BLly1XeXm54wOFWqK5j5mn7os3VFRUOP3ZXJ8uWOj4+eF/PO5ynQWLPnf7E8rz8/Ml1Zxh9oXmPNa+nrWu5j5HAaAjIXIBQNLpp52mrKxsPfXc8/rTX/6qhx+4z+XZk5ZIiI9XSEiwCosK3X6JY2REhGZdcL5mXXC+9u3fr2vn3KQnn31O58841/FBP57crjGWZemJZ55Vl6REnXvWmZKkHTt3atEXXzT4YJvsnBxJUnpGxhH364l91Ge329Wndy/t3rPnqCOkOY9Za9yX1tQtOVl+fn5at35Di7b/+NPP1C05WZ99+EGD66qrqzX59DO0cPFi3TLnRre+zim5a1fZbDZtSUtr0TxHqzmPtSdmDQgIaPZL6l1pyf+uAEBHwXtyAeCQKy69ROfPmKGFixfrkcef8Oi+z54+XT//8qve+++HR1zXsiynyzHR0Ro9cqQqKyt1sKzM49s1Jr+gQLffdbc2/fyL7r7jj46v78nLqzmbVVlZ6bT+1rRtkpzfExoSEnzoOucoaM4+6iopLdWWra4DY9v2HVq+YqUGDjje8emzjd2+O9x9zFp6X3zFz89PE8aN05Kvv9aKVaucrlu1Zk2T2/78y6/ampamaVOnuLzebrdr8sknKycnV2vW/ujWPEFBQRp4/PH64suvWvW7mJt6Lrj7WLs7a1O3ldq9u3Jyc/XzL786Lf/ft0uPeB9aOjcAdDScyQWAOu687RZlZWfpzXfeVXxcnC67eLZH9nvd76/W8hUrdN+DD2nV6jUaNXK4goKCtHnLVpWXl+uPt9wsScrYm6mZl16qE8eOVe+ePRUaGqqff/lFn8xfoPEnnqDIiAiX+2/pdoctXvKlft1c85f2vPx8paVt05q1a2X3s+uRv9+vE8eOdax7XN9jlZiQoGeef0EbNm7SgOP7a8fOnY6/aNc9e9c9JUWJCQn66ONPFB4eroT4eI0bO7ZZ+6hr/sJFuu/Bh9QlKUkDBxyvpMREBQQEaMfOnfr6m28VHBSk++758xFvPy4u9kgPmduPWUvviy/94cYbtPqHH/T7G+bojN+cpt69emnz1q36+NPPmtzu489qrq//vb11TZk0SW+9O1cLFi3SiGFD3Zrnj7ferMuuulqXXHmVZp53nnr36qX9eXn6Zul3+ts9dzf4oK6WaOq54O5j7e6sTd3Weeeeq/f++6Guvv4GnTfjXIWGhGjtTz/p62++bfZ9as7cANCRELkAUIfdbtejf39AV1xzrZ589jnFxsbqjN+cdtT7DQsN1btvvK5/v/Kqli7/Xt888aQ6dQpSavcUnTltmmO9Tp0Cdf655+rb75bp2++WqbSkRAkJCZp94QW64rJLG91/S7c7rO4HCCUmJKhP71767bnnaPbMCxUVGem0blBQkF54+kk99uTT+u7777VyzWr1P+44vfXqf/Tnv97ntK6/v7+eeeIfeujRf+i1N95QQnyCkhITNWbUSLf3UdfZ089QfFycFi3+Qr9u2ayly5bLbrcpuWtXXTzzQl08a6aioqKOePvuRK67j1lzjkdbkdItWXPffF1PPP2svl+5SouXfKkBxx+vpx57VHNuvc3pk7QPq6ys1GcLF6nfcX3VIzW10X0PHjRQcXGxWrzkS911+21ufT/s8f366d03XtfTzz+vTxcsVH5BgeLj4nTCmNEuZ2mJpp4L7j7W7s7a1G317JGql59/Tk8++5zefPsdJSYkaMjgQXrn/17TrMsub9Z9as7cANCR2Kz6r28DAAAd0i+bN+u8WbP1yN/v19TJ7n2dEAAAbczDbe81VAAAwCe2b98hSUpNSfHtIAAAHAUiFwCADqj+d/KWl5fr9bff0fH9+6vvscf6aCoAAI4e78kFAKCDqa6u1tTpZ2nUyBHqe8wxKisr0+dLlmjXrt168dmnfT0eAABHhcgFAKCDqays1Iyzz9KSr77WF19+qciISB3fv58e/fvfldIt2dfjAQBwVPjgKQAAAACAKfjgKQAAAACAOYhcAAAAAIAxiFwAAAAAgDGIXAAAAACAMYhcAAAAAIAxiFwAAAAAgDGIXAAAAACAMYhcAAAAAIAxiFwAAAAAgDGIXAAAAACAMYhcAAAAAIAxiFwAAAAAgDGIXAAAAACAMYhcAAAAAIAxiFwAAAAAgDGIXAAAAACAMYhcAAAAAIAxiFwAAAAAgDGIXAAAAACAMYhcAAAAAIAxiFwAAAAAgDGIXAAAAACAMYhcAAAAAIAxiFwAAAAAgDGIXAAAAACAMYhcAAAAAIAxiFwAAAAAgDGIXAAAAACAMYhcAAAAAIAxiFwAAAAAgDGIXAAAAACAMYhcAAAAAIAxiFwAAAAAgDGIXAAAAACAMYhcAAAAAIAxiFwAAAAAgDGIXAAAAACAMYhcAAAAAIAxiFwAAAAAgDGIXAAAAACAMYhcAAAAAIAxiFwAAAAAgDGIXAAAAACAMYhcAAAAAIAxiFwAAAAAgDGIXAAAAACAMYhcAAAAAIAxiFwAAAAAgDGIXAAAAACAMYhcAAAAAIAxiFwAAAAAgDGIXAAAAACAMYhcAAAAAIAxiFwAAAAAgDGIXAAAAACAMYhcAAAAAIAxiFwAAAAAgDGIXAAAAACAMYhcAAAAAIAxiFwAAAAAgDGIXAAAAACAMYhcAAAAAIAxiFwAAAAAgDGIXAAAAACAMYhcAAAAAIAxiFwAAAAAgDGIXAAAAACAMYhcAAAAAIAxiFwAAAAAgDGIXAAAAACAMYhcAAAAAIAxiFwAAAAAgDGIXAAAAACAMYhcAAAAAIAxiFwAAAAAgDGIXAAAAACAMYhcAAAAAIAxiFwAAAAAgDGIXAAAAACAMYhcAAAAAIAxiFwAAAAAgDGIXAAAAACAMYhcAAAAAIAxiFwAAAAAgDGIXAAAAACAMYhcAAAAAIAxiFwAAAAAgDGIXAAAAACAMYhcAAAAAIAxiFwAAAAAgDGIXAAAAACAMYhcAAAAAIAxiFwAAAAAgDGIXAAAAACAMYhcAAAAAIAxiFwAAAAAgDGIXAAAAACAMYhcAAAAAIAxiFwAAAAAgDGIXAAAAACAMYhcAAAAAIAxiFwAAAAAgDGIXAAAAACAMYhcAAAAAIAxiFwAAAAAgDGIXAAAAACAMYhcAAAAAIAxiFwAAAAAgDGIXAAAAACAMYhcAAAAAIAxiFwAAAAAgDGIXAAAAACAMYhcAAAAAIAxiFwAAAAAgDGIXAAAAACAMYhcAAAAAIAxiFwAAAAAgDGIXAAAAACAMYhcAAAAAIAxiFwAAAAAgDGIXAAAAACAMYhcAAAAAIAxiFwAAAAAgDGIXAAAAACAMYhcAAAAAIAxiFwAAAAAgDGIXAAAAACAMYhcAAAAAIAxiFwAAAAAgDGIXAAAAACAMYhcAAAAAIAxiFwAAAAAgDGIXAAAAACAMYhcAAAAAIAxiFwAAAAAgDGIXAAAAACAMYhcAAAAAIAxiFwAAAAAgDGIXAAAAACAMYhcAAAAAIAxiFwAAAAAgDGIXAAAAACAMYhcAAAAAIAxiFwAAAAAgDGIXAAAAACAMYhcAAAAAIAxiFwAAAAAgDGIXAAAAACAMYhcAAAAAIAxiFwAAAAAgDGIXAAAAACAMYhcAAAAAIAxiFwAAAAAgDGIXAAAAACAMYhcAAAAAIAxiFwAAAAAgDGIXAAAAACAMYhcAAAAAIAxiFwAAAAAgDGIXAAAAACAMYhcAAAAAIAxiFwAAAAAgDGIXAAAAACAMYhcAAAAAIAxiFwAAAAAgDGIXAAAAACAMYhcAAAAAIAxiFwAAAAAgDGIXAAAAACAMYhcAAAAAIAxiFwAAAAAgDGIXAAAAACAMYhcAAAAAIAxiFwAAAAAgDGIXAAAAACAMYhcAAAAAIAxiFwAAAAAgDGIXAAAAACAMYhcAAAAAIAxiFwAAAAAgDGIXAAAAACAMYhcAAAAAIAxiFwAAAAAgDGIXAAAAACAMYhcAAAAAIAxiFwAAAAAgDGIXAAAAACAMYhcAAAAAIAxiFwAAAAAgDGIXAAAAACAMYhcAAAAAIAxiFwAAAAAgDGIXAAAAACAMYhcAAAAAIAxiFwAAAAAgDGIXAAAAACAMYhcAAAAAIAx/h9pIZz4aeHoUwAAAABJRU5ErkJggg==" vertex="1" parent="1">
          <mxGeometry x="40" y="40" width="600" height="400" as="geometry" />
        </mxCell>
      </root>
    </mxGraphModel>
  </diagram>
</mxfile>